<svg width="53" height="101" viewBox="0 0 53 101" fill="none" xmlns="http://www.w3.org/2000/svg">
<g clip-path="url(#clip0_1159_146)">
<path d="M26.6464 75.3536C26.8417 75.5488 27.1583 75.5488 27.3536 75.3536L30.5355 72.1716C30.7308 71.9763 30.7308 71.6597 30.5355 71.4645C30.3403 71.2692 30.0237 71.2692 29.8284 71.4645L27 74.2929L24.1716 71.4645C23.9763 71.2692 23.6597 71.2692 23.4645 71.4645C23.2692 71.6597 23.2692 71.9763 23.4645 72.1716L26.6464 75.3536ZM26.5 -2.18557e-08L26.5 75L27.5 75L27.5 2.18557e-08L26.5 -2.18557e-08Z" fill="white"/>
<circle cx="26.5" cy="74.5" r="26" stroke="white"/>
</g>
<defs>
<clipPath id="clip0_1159_146">
<rect width="53" height="101" fill="white"/>
</clipPath>
</defs>
</svg>
