<svg width="24" height="24" viewBox="0 0 24 24" fill="none" xmlns="http://www.w3.org/2000/svg">
<g clip-path="url(#clip0_378_174)">
<path d="M14.2969 12C14.2969 13.2685 13.2685 14.2969 12 14.2969C10.7314 14.2969 9.70312 13.2685 9.70312 12C9.70312 10.7314 10.7314 9.70312 12 9.70312C13.2685 9.70312 14.2969 10.7314 14.2969 12Z" fill="white"/>
<path d="M17.3702 7.93622C17.2598 7.63702 17.0836 7.36621 16.8547 7.14391C16.6324 6.91504 16.3617 6.73889 16.0624 6.62848C15.8195 6.53417 15.4548 6.42193 14.7831 6.39135C14.0563 6.35821 13.8383 6.35107 11.9985 6.35107C10.1585 6.35107 9.94062 6.35803 9.21405 6.39118C8.54223 6.42193 8.17731 6.53417 7.9347 6.62848C7.63532 6.73889 7.3645 6.91504 7.1424 7.14391C6.91352 7.36621 6.73737 7.63684 6.62677 7.93622C6.53247 8.17901 6.42023 8.54394 6.38965 9.21576C6.35651 9.94231 6.34937 10.1602 6.34937 12.0003C6.34937 13.8401 6.35651 14.0579 6.38965 14.7847C6.42023 15.4566 6.53247 15.8213 6.62677 16.0641C6.73737 16.3635 6.91333 16.6341 7.14222 16.8563C7.3645 17.0853 7.63513 17.2614 7.93451 17.3718C8.17731 17.4663 8.54223 17.5785 9.21405 17.6092C9.94062 17.6422 10.1583 17.6492 11.9984 17.6492C13.8386 17.6492 14.0564 17.6422 14.7828 17.6092C15.4546 17.5785 15.8195 17.4663 16.0624 17.3718C16.6634 17.14 17.1383 16.665 17.3702 16.0641C17.4644 15.8213 17.5767 15.4566 17.6074 14.7847C17.6406 14.0579 17.6476 13.8401 17.6476 12.0003C17.6476 10.1602 17.6406 9.94231 17.6074 9.21576C17.5769 8.54394 17.4646 8.17901 17.3702 7.93622ZM11.9985 15.5384C10.0443 15.5384 8.46002 13.9543 8.46002 12C8.46002 10.0458 10.0443 8.46173 11.9985 8.46173C13.9527 8.46173 15.5369 10.0458 15.5369 12C15.5369 13.9543 13.9527 15.5384 11.9985 15.5384ZM15.6767 9.14874C15.2201 9.14874 14.8498 8.7785 14.8498 8.32183C14.8498 7.86517 15.2201 7.49494 15.6767 7.49494C16.1334 7.49494 16.5036 7.86517 16.5036 8.32183C16.5035 8.7785 16.1334 9.14874 15.6767 9.14874Z" fill="white"/>
<path d="M12 0C5.3736 0 0 5.3736 0 12C0 18.6264 5.3736 24 12 24C18.6264 24 24 18.6264 24 12C24 5.3736 18.6264 0 12 0ZM18.8491 14.8408C18.8158 15.5744 18.6991 16.0752 18.5288 16.5135C18.1708 17.4392 17.4392 18.1708 16.5135 18.5288C16.0754 18.6991 15.5744 18.8156 14.8411 18.8491C14.1062 18.8825 13.8716 18.8906 12.0002 18.8906C10.1287 18.8906 9.89411 18.8825 9.15912 18.8491C8.42578 18.8156 7.9248 18.6991 7.48664 18.5288C7.02668 18.3557 6.61029 18.0845 6.26605 17.7339C5.91559 17.3899 5.64441 16.9733 5.47138 16.5135C5.30109 16.0754 5.18445 15.5744 5.15112 14.8411C5.11725 14.1061 5.10937 13.8713 5.10937 12C5.10937 10.1287 5.11725 9.89392 5.15093 9.15912C5.18426 8.42559 5.30072 7.9248 5.47101 7.48645C5.64405 7.02668 5.9154 6.61011 6.26605 6.26605C6.61011 5.9154 7.02668 5.64422 7.48645 5.47119C7.9248 5.3009 8.42559 5.18445 9.15912 5.15093C9.89392 5.11743 10.1287 5.10937 12 5.10937C13.8713 5.10937 14.1061 5.11743 14.8408 5.15112C15.5744 5.18445 16.0752 5.3009 16.5135 5.47101C16.9733 5.64405 17.3899 5.9154 17.7341 6.26605C18.0845 6.61029 18.356 7.02668 18.5288 7.48645C18.6993 7.9248 18.8158 8.42559 18.8493 9.15912C18.8828 9.89392 18.8906 10.1287 18.8906 12C18.8906 13.8713 18.8828 14.1061 18.8491 14.8408Z" fill="white"/>
</g>
<defs>
<clipPath id="clip0_378_174">
<rect width="24" height="24" fill="white"/>
</clipPath>
</defs>
</svg>
