<svg width="789" height="212" viewBox="0 0 789 212" fill="none" xmlns="http://www.w3.org/2000/svg">
<g clip-path="url(#clip0_1205_200)">
<path d="M217.889 181.292C216.596 183.791 214.959 186.203 212.977 188.53C211.081 190.857 208.884 192.925 206.385 194.734C203.972 196.458 201.387 197.88 198.629 199C195.872 200.034 193.028 200.551 190.098 200.551C185.359 200.551 181.179 199.646 177.56 197.837C173.941 196.027 170.925 193.614 168.512 190.598C166.099 187.496 164.29 183.963 163.083 179.999C161.877 176.035 161.274 171.856 161.274 167.461V38.8496C161.274 37.557 161.101 36.2644 160.757 34.9719C160.498 33.5931 160.024 32.3867 159.335 31.3526C158.645 30.2324 157.741 29.3707 156.62 28.7675C155.586 28.0781 154.294 27.7334 152.743 27.7334C150.157 27.7334 147.357 28.8106 144.341 30.9649C141.411 33.033 138.438 36.049 135.422 40.0129C132.492 43.8907 129.649 48.587 126.891 54.102C124.134 59.617 121.678 65.7352 119.523 72.4566C117.455 79.1781 115.775 86.4596 114.482 94.3012C113.19 102.057 112.543 110.2 112.543 118.731V193.442L85.7869 203.007V38.8496C85.7869 37.557 85.6145 36.2644 85.2698 34.9719C85.0113 33.5931 84.5374 32.3867 83.848 31.3526C83.1586 30.2324 82.2969 29.3707 81.2629 28.7675C80.2288 28.0781 78.9362 27.7334 77.3851 27.7334C74.8 27.7334 71.9994 29.3276 68.9834 32.516C66.0535 35.6181 63.0806 39.7975 60.0646 45.054C57.1347 50.2243 54.248 56.2132 51.4043 63.0208C48.6468 69.8284 46.1909 76.8945 44.0366 84.2191C41.9685 91.4575 40.2881 98.696 38.9955 105.934C37.7029 113.173 37.0567 119.851 37.0567 125.969V193.442L10.3003 203.007V17.9098L37.0567 8.3447V81.2462C40.4174 66.7693 44.2089 54.8776 48.4314 45.571C52.7399 36.2644 57.1778 28.8967 61.7449 23.4679C66.3982 18.0391 71.1377 14.2906 75.9633 12.2225C80.7889 10.0682 85.4853 8.99099 90.0524 8.99099C95.2227 8.99099 99.3159 9.63728 102.332 10.9299C105.348 12.1363 107.632 13.8597 109.183 16.1002C110.734 18.2545 111.682 20.8397 112.026 23.8557C112.457 26.7855 112.63 30.017 112.543 33.55V71.9396C115.129 61.2543 118.489 51.9908 122.626 44.1492C126.762 36.2214 131.243 29.6723 136.068 24.502C140.894 19.2455 145.849 15.3677 150.933 12.8688C156.103 10.2836 160.972 8.99099 165.539 8.99099C172.778 8.99099 178.336 10.5421 182.213 13.6443C186.091 16.6603 188.03 21.7876 188.03 29.026V171.727C188.03 173.45 188.202 175.173 188.547 176.897C188.892 178.62 189.452 180.171 190.227 181.55C191.089 182.843 192.209 183.92 193.588 184.782C194.967 185.643 196.647 186.074 198.629 186.074C201.559 186.074 204.36 185.212 207.031 183.489C209.702 181.766 211.9 179.784 213.623 177.543L217.889 181.292ZM268.945 193.442L242.189 203.007V17.9098L268.945 8.3447V193.442ZM457.533 181.292C456.24 183.791 454.603 186.203 452.621 188.53C450.725 190.857 448.528 192.925 446.029 194.734C443.616 196.458 441.031 197.88 438.273 199C435.516 200.034 432.672 200.551 429.742 200.551C424.917 200.551 420.694 199.646 417.075 197.837C413.542 196.027 410.526 193.614 408.027 190.598C405.614 187.496 403.805 183.963 402.598 179.999C401.392 176.035 400.789 171.856 400.789 167.461V55.7824C400.789 53.7143 400.789 51.4738 400.789 49.061C400.789 46.562 400.659 44.1061 400.401 41.6933C400.228 39.2805 399.841 36.9538 399.237 34.7133C398.634 32.4729 397.729 30.534 396.523 28.8967C395.317 27.1733 393.722 25.7946 391.74 24.7605C389.845 23.7264 387.432 23.2094 384.502 23.2094C379.59 23.2094 375.195 24.6743 371.318 27.6042C367.44 30.534 363.993 34.3687 360.977 39.1081C358.047 43.7614 355.505 49.061 353.351 55.0068C351.283 60.8665 349.559 66.7693 348.181 72.7152C346.888 78.661 345.94 84.3484 345.337 89.7772C344.734 95.206 344.432 99.7731 344.432 103.478V192.925L317.676 202.748V17.6513L344.432 8.08618V56.8164C346.156 50.5259 348.439 44.4939 351.283 38.7203C354.213 32.8606 357.746 27.6903 361.882 23.2094C366.104 18.7285 371.016 15.1954 376.617 12.6102C382.305 9.93888 388.811 8.60321 396.135 8.60321C401.65 8.60321 406.39 9.63728 410.354 11.7054C414.317 13.6874 417.549 16.4018 420.048 19.8487C422.633 23.2956 424.529 27.3026 425.735 31.8697C426.942 36.4368 427.545 41.2193 427.545 46.2173V171.727C427.545 173.45 427.717 175.173 428.062 176.897C428.493 178.62 429.096 180.215 429.872 181.679C430.733 183.058 431.853 184.178 433.232 185.04C434.611 185.902 436.334 186.333 438.403 186.333C441.332 186.333 444.09 185.428 446.675 183.618C449.346 181.809 451.544 179.784 453.267 177.543L457.533 181.292ZM634.875 106.581C634.875 114.508 634.013 122.436 632.289 130.364C630.566 138.206 628.024 145.703 624.663 152.855C621.389 159.921 617.339 166.513 612.513 172.631C607.773 178.75 602.302 184.092 596.097 188.659C589.893 193.14 583.042 196.63 575.545 199.129C568.134 201.714 560.12 203.007 551.503 203.007C542.886 203.007 534.829 201.714 527.332 199.129C519.921 196.63 513.114 193.14 506.909 188.659C500.705 184.092 495.19 178.75 490.364 172.631C485.539 166.513 481.445 159.921 478.085 152.855C474.724 145.703 472.182 138.206 470.459 130.364C468.735 122.436 467.873 114.508 467.873 106.581C467.873 98.6529 468.735 90.7682 470.459 82.9265C472.182 75.0849 474.724 67.631 478.085 60.5649C481.445 53.4126 485.539 46.7774 490.364 40.6592C495.19 34.4548 500.705 29.1122 506.909 24.6312C513.114 20.1503 519.921 16.6603 527.332 14.1613C534.829 11.5762 542.886 10.2836 551.503 10.2836C560.12 10.2836 568.134 11.5762 575.545 14.1613C583.042 16.6603 589.893 20.1503 596.097 24.6312C602.302 29.1122 607.773 34.4548 612.513 40.6592C617.339 46.7774 621.389 53.4126 624.663 60.5649C628.024 67.631 630.566 75.0849 632.289 82.9265C634.013 90.7682 634.875 98.6529 634.875 106.581ZM539.87 23.4679C534.269 23.4679 529.271 24.4589 524.876 26.4408C520.567 28.3366 516.733 30.9649 513.372 34.3256C510.011 37.6001 507.168 41.4348 504.841 45.8295C502.514 50.1381 500.619 54.7052 499.154 59.5309C497.689 64.3565 496.612 69.2683 495.922 74.2663C495.233 79.2642 494.888 84.0468 494.888 88.6139C494.888 95.4215 495.405 102.66 496.439 110.329C497.473 117.912 499.111 125.409 501.351 132.82C503.678 140.231 506.608 147.34 510.141 154.148C513.76 160.869 518.112 166.815 523.196 171.985C528.28 177.155 534.096 181.292 540.646 184.394C547.281 187.41 554.778 188.918 563.136 188.918C568.651 188.918 573.563 187.97 577.872 186.074C582.267 184.092 586.144 181.464 589.505 178.189C592.866 174.829 595.709 170.951 598.036 166.556C600.363 162.162 602.258 157.551 603.723 152.726C605.274 147.9 606.395 142.988 607.084 137.99C607.773 132.906 608.118 128.081 608.118 123.513C608.118 116.706 607.601 109.51 606.567 101.927C605.533 94.3443 603.853 86.8474 601.526 79.4366C599.286 72.0258 596.356 64.9597 592.736 58.2383C589.203 51.4307 584.895 45.4848 579.811 40.4007C574.727 35.2304 568.867 31.1372 562.232 28.1212C555.683 25.019 548.229 23.4679 539.87 23.4679ZM783.65 39.6251L761.935 65.8645C760.039 60.1771 757.583 54.7483 754.567 49.578C751.551 44.4077 747.975 39.8837 743.839 36.0059C739.703 32.1282 735.006 29.026 729.75 26.6994C724.493 24.3727 718.634 23.2094 712.171 23.2094C707.517 23.2094 703.209 24.0711 699.245 25.7946C695.281 27.4318 691.791 29.7585 688.775 32.7745C685.845 35.7043 683.519 39.1943 681.795 43.2444C680.158 47.2944 679.339 51.6461 679.339 56.2994C679.339 61.125 680.244 65.6491 682.054 69.8715C683.863 74.0939 686.276 77.9286 689.292 81.3754C692.308 84.7361 695.755 87.666 699.633 90.165C703.597 92.664 707.69 94.6028 711.912 95.9816C716.135 97.4465 720.573 99.0838 725.226 100.893C729.879 102.703 734.446 104.814 738.927 107.227C743.408 109.64 747.674 112.354 751.724 115.37C755.774 118.3 759.35 121.618 762.452 125.323C765.554 129.028 768.01 133.165 769.82 137.732C771.629 142.213 772.534 147.125 772.534 152.467C772.534 160.223 770.811 167.203 767.364 173.407C764.003 179.525 759.565 184.695 754.05 188.918C748.535 193.14 742.202 196.372 735.049 198.612C727.983 200.853 720.788 201.973 713.463 201.973C708.465 201.973 703.381 201.24 698.211 199.776C693.127 198.311 688.215 196.329 683.476 193.83C678.822 191.245 674.427 188.272 670.291 184.911C666.241 181.55 662.708 177.931 659.692 174.053L680.632 150.011C681.924 154.148 684.165 158.542 687.353 163.196C690.628 167.849 694.419 172.157 698.728 176.121C703.037 180.085 707.647 183.403 712.559 186.074C717.556 188.659 722.382 189.952 727.035 189.952C729.707 189.952 732.464 189.263 735.308 187.884C738.152 186.505 740.737 184.739 743.063 182.584C745.476 180.344 747.458 177.931 749.009 175.346C750.56 172.761 751.336 170.219 751.336 167.72C751.336 163.928 750.56 160.352 749.009 156.991C747.458 153.544 745.39 150.313 742.805 147.297C740.306 144.281 737.376 141.523 734.015 139.024C730.741 136.439 727.294 134.156 723.675 132.174C720.142 130.106 716.566 128.339 712.946 126.874C709.413 125.323 706.139 124.117 703.123 123.255C697.177 121.445 691.36 118.86 685.673 115.499C680.072 112.139 675.074 108.089 670.679 103.349C666.284 98.6098 662.751 93.3102 660.08 87.4506C657.409 81.5047 656.073 75.1711 656.073 68.4496C656.073 62.6761 656.978 57.2042 658.787 52.0339C660.597 46.8636 663.096 42.081 666.284 37.6863C669.473 33.2915 673.221 29.3276 677.53 25.7946C681.838 22.1753 686.492 19.1593 691.489 16.7465C696.487 14.2475 701.701 12.3517 707.13 11.0592C712.559 9.68036 718.03 8.99099 723.545 8.99099C735.61 8.99099 746.812 11.7054 757.152 17.1343C767.493 22.4769 776.326 29.9739 783.65 39.6251Z" fill="white"/>
<mask id="mask0_1205_200" style="mask-type:alpha" maskUnits="userSpaceOnUse" x="-51" y="-8" width="864" height="220">
<path d="M-4.36894 -4.63146C-4.36894 -1.37909 -4.71725 -1.14674 -9.24587 -0.682124C-12.0327 -0.449865 -9.36194 -0.217515 -3.43998 -0.101339L7.24292 0.130921V11.7466V23.3621H13.0484H18.8549V40.2047V57.0474H14.2101H9.56531V46.0125C9.56531 39.3916 9.10084 34.9777 8.40366 34.9777C7.7074 34.9777 7.24292 39.3916 7.24292 46.0125V57.0474H2.59814H-2.04655V33.8162V10.585L-8.08467 10.8172C-14.0067 10.9334 -14.0067 11.0496 -9.24587 11.398L-4.36894 11.8627V22.8975V33.8162H-9.01363H-13.6583V28.5891C-13.6583 25.6853 -14.1228 23.3621 -14.8195 23.3621C-15.4001 23.3621 -15.9807 25.9175 -15.9807 29.1699V34.9777H-10.1748H-4.36894V40.2047V45.4317L-15.0517 45.6641C-20.9738 45.7802 -23.6445 46.0125 -20.8576 46.2449L-15.9807 46.7095V58.3247C-15.9807 65.1778 -15.5162 69.8249 -14.8195 69.8249C-14.1228 69.8249 -13.6583 65.1778 -13.6583 58.2091V46.5933H-9.01363H-4.36894V52.4011V58.2091H7.24292H18.8549V75.0514V91.8936H14.2101H9.56531V80.2788V68.6631L3.5271 68.8951C-2.39486 69.0115 -2.39486 69.1271 2.3659 69.4764L7.24292 69.9404V81.5561V93.0554H18.8549H30.4668V98.2828V103.394L19.7838 103.858L8.98448 104.206L19.7838 104.439L30.4668 104.671V110.479V116.287H36.2724H42.0788V122.095C42.0788 125.231 42.6587 127.903 43.2395 127.903C43.9367 127.903 44.4003 123.256 44.4003 116.287C44.4003 109.317 43.9367 104.671 43.2395 104.671C42.6587 104.671 42.0788 106.995 42.0788 109.899V115.125H37.434H32.7892V98.2828C32.7892 87.8289 32.3248 81.4397 31.6276 81.4397C31.0467 81.4397 30.4668 83.7632 30.4668 86.6671V91.8936H25.8221H21.1773V75.0514V58.2091H26.9828H32.7892V46.5933C32.7892 39.624 32.3248 34.9777 31.6276 34.9777C30.9313 34.9777 30.4668 39.3916 30.4668 46.0125V57.0474H25.8221H21.1773V39.6239V22.2005H15.3708H9.56531V16.9735V11.7466H20.0156H30.4668V17.5543C30.4668 20.6905 31.0467 23.3621 31.6276 23.3621C32.3248 23.3621 32.7892 20.6905 32.7892 17.5543V11.7466H37.434H42.0788V40.0886V68.5466L37.2013 69.0115C32.4402 69.36 32.4402 69.4764 38.363 69.592L44.4003 69.8249V46.5933V23.3621H49.045H53.6898V52.4011V81.4397H59.4963H65.3018V93.0554C65.3018 100.025 65.7662 104.671 66.4634 104.671C67.1597 104.671 67.6242 99.793 67.6242 92.475V80.2788H61.8186H56.0122V75.0514V69.8249H66.4634H76.9137V87.2475C76.9137 98.0499 77.3782 104.671 78.0754 104.671C78.7716 104.671 79.2361 101.999 79.2361 98.8633V93.0554H83.8809H88.5257V98.8633V104.671H100.138H111.75V109.782V115.009L106.872 115.474L101.879 115.938L106.872 116.055L111.75 116.287V121.513V126.624L100.486 126.973L89.1065 127.321L88.7575 133.362C88.5257 137.078 88.8738 139.518 89.571 139.518C90.2672 139.518 90.8481 136.963 90.8481 133.71V127.903H101.298H111.75V133.014V138.24L106.872 138.705C102.111 139.053 102.111 139.17 108.034 139.285L114.072 139.518V133.71V127.903H118.717H123.361V133.71C123.361 136.846 123.941 139.518 124.522 139.518C125.219 139.518 125.683 136.614 125.683 133.129V126.741H119.877H114.072V115.706V104.671H118.717H123.361V110.479C123.361 113.615 123.941 116.287 124.522 116.287C125.219 116.287 125.683 113.615 125.683 110.479V104.671H136.134H146.585V109.782V115.009L141.127 115.357L135.553 115.706L135.205 127.554C134.973 135.22 135.322 139.518 136.134 139.518C136.715 139.518 137.295 136.963 137.295 133.71V127.903H141.94H146.585V139.518C146.585 146.487 147.049 151.133 147.746 151.133C148.442 151.133 148.907 146.487 148.907 139.518V127.903H153.552H158.196V144.745V161.587H147.746H137.295V156.361C137.295 153.457 136.83 151.133 136.134 151.133C135.553 151.133 134.973 153.457 134.973 156.361V161.587H130.328H125.683V156.361C125.683 153.457 125.219 151.133 124.522 151.133C123.825 151.133 123.361 155.547 123.361 162.168V173.203H112.91H102.46V167.976V162.749H108.266H114.072V156.941C114.072 153.689 113.608 151.133 112.91 151.133C112.329 151.133 111.75 153.457 111.75 156.361V161.587H107.105H102.46V156.361C102.46 153.457 101.996 151.133 101.298 151.133C100.602 151.133 100.138 157.522 100.138 167.976V184.819H95.4929H90.8481V167.976C90.8481 157.522 90.3836 151.133 89.6864 151.133C88.9901 151.133 88.5257 155.547 88.5257 162.052V173.087L83.0683 173.436L77.4945 173.784L77.1464 179.94C76.9137 183.541 77.2618 185.98 77.959 185.98C78.6553 185.98 79.2361 183.425 79.2361 180.172V174.365H83.8809H88.5257V180.172V185.98H94.3312H100.138V198.758C100.138 206.54 100.602 211.534 101.298 211.534C101.996 211.534 102.46 204.565 102.46 192.95V174.365H112.91H123.361V185.4V196.434H118.717H114.072V191.207C114.072 188.304 113.608 185.98 112.91 185.98C112.214 185.98 111.75 190.626 111.75 197.596C111.75 204.565 112.214 209.212 112.91 209.212C113.608 209.212 114.072 206.54 114.072 203.404V197.596H119.877H125.683V180.172V162.749H130.328H134.973V168.557C134.973 171.693 135.553 174.365 136.134 174.365C136.83 174.365 137.295 171.693 137.295 168.557V162.749H141.94H146.585V174.365C146.585 181.334 147.049 185.98 147.746 185.98C148.442 185.98 148.907 181.334 148.907 174.365V162.749H153.552H158.196V185.98C158.196 200.732 158.661 209.212 159.357 209.212C160.054 209.212 160.519 200.732 160.519 185.98V162.749H166.324H172.131V156.941V151.133H182.581H193.032V156.244V161.472L187.574 161.82L182 162.168L181.652 168.325C181.42 171.926 181.768 174.365 182.465 174.365C183.162 174.365 183.743 171.809 183.743 168.557V162.749H188.388H193.032V180.172V197.596L200.348 197.363L207.547 197.131L201.508 196.783L195.354 196.318V191.207V186.097L201.508 185.632L207.547 185.283L201.508 185.051L195.354 184.819V167.976V151.133H199.999H204.643V162.749V174.365H210.45H216.255V191.788V209.212H221.945C225.429 209.212 227.984 209.792 228.332 210.606C228.913 211.883 229.144 211.883 229.725 210.606C230.538 208.979 239.479 208.63 239.479 210.373C239.479 210.954 240.06 211.534 240.64 211.534C241.337 211.534 241.802 208.398 241.802 204.565V197.596H246.446H251.091V204.565C251.091 208.398 251.556 211.534 252.252 211.534C252.949 211.534 253.414 210.954 253.414 210.373C253.414 208.63 262.354 208.979 263.168 210.606C263.748 211.883 263.98 211.883 264.561 210.606C265.025 209.56 269.786 209.212 282.559 209.212H299.86V203.404C299.86 200.152 299.396 197.596 298.7 197.596C298.119 197.596 297.538 199.919 297.538 202.823V208.05H292.893H288.248V202.823C288.248 199.919 287.784 197.596 287.088 197.596C286.507 197.596 285.926 199.919 285.926 202.823V208.05H281.281H276.637V202.242V196.434H270.831H265.026V190.626V184.819L258.987 185.051C253.065 185.167 253.065 185.283 257.826 185.632L262.703 186.097V191.905V197.596H268.509H274.314V202.823V208.05H263.864H253.414V202.242V196.318L246.795 196.666L240.06 197.015L239.711 202.591L239.363 208.05H234.718H230.19V197.015C230.19 190.394 229.725 185.98 229.029 185.98C228.332 185.98 227.867 190.394 227.867 197.015V208.05H223.222H218.578V190.626V173.203H212.772H206.966V168.092V162.865L213.12 162.4L219.159 162.052L213.12 161.82L206.966 161.587V156.361V151.133H212.772H218.578V145.326C218.578 142.074 218.113 139.518 217.417 139.518C216.836 139.518 216.255 141.841 216.255 144.745V149.972H211.611H206.966V138.937C206.966 132.317 206.501 127.903 205.805 127.903C205.108 127.903 204.643 132.317 204.643 138.937V149.972H199.999H195.354V133.129V116.287H201.16H206.966V110.479C206.966 107.227 206.501 104.671 205.805 104.671C205.224 104.671 204.643 106.995 204.643 109.782V115.009L199.186 115.357L193.612 115.706L193.264 132.897L192.916 149.972H188.388H183.743V144.745C183.743 141.841 183.278 139.518 182.581 139.518C182 139.518 181.42 141.841 181.42 144.745V149.972H176.776H172.131V138.937V127.903H177.936H183.743V110.479C183.743 99.6766 183.278 93.0554 182.581 93.0554C181.885 93.0554 181.42 99.4446 181.42 109.899V126.741H176.776H172.131V104.091V81.4397H177.936H183.743V75.6318C183.743 72.3794 183.278 69.8249 182.581 69.8249C182 69.8249 181.42 72.1474 181.42 75.0514V80.2788H176.776H172.131V75.0514C172.131 72.1474 171.666 69.8249 170.969 69.8249C170.273 69.8249 169.808 74.2381 169.808 80.7428V91.7781L164.931 92.2421L159.938 92.707L164.931 92.8234L169.808 93.0554V98.1664V103.394L164.931 103.858L159.938 104.323L164.931 104.439L169.808 104.671V133.129V161.587H165.164H160.519V144.164V126.741H148.907H137.295V121.513V116.287L149.255 116.055C155.758 115.938 158.313 115.706 155.061 115.474L148.907 115.009V92.3585C148.907 78.0718 148.442 69.8249 147.746 69.8249C147.165 69.8249 146.585 72.1474 146.585 75.0514V80.2788H141.94H137.295V69.2435C137.295 62.6232 136.83 58.2091 136.134 58.2091C135.437 58.2091 134.973 62.8552 134.973 69.8249V81.4397H140.779H146.585V86.6671V91.8936H136.134H125.683V80.2788V68.6631H119.877H114.072V63.5521V58.3247L120.226 57.8607L126.264 57.5123L120.226 57.2793L114.072 57.0474V51.2395V45.3155L101.647 45.6641L89.1065 46.0125L88.7575 63.6686C88.5257 75.2834 88.8738 81.4397 89.6864 81.4397C90.3836 81.4397 90.8481 75.1678 90.8481 64.017V46.5933H95.4929H100.138V64.017C100.138 74.8194 100.602 81.4397 101.298 81.4397C101.996 81.4397 102.46 74.8194 102.46 64.017V46.5933H107.105H111.75V64.017C111.75 74.8194 112.214 81.4397 112.91 81.4397C113.608 81.4397 114.072 78.7686 114.072 75.6318V69.8249H118.717H123.361V81.4397V93.0554H134.973H146.585V98.2828V103.509H130.328H114.072V98.2828C114.072 95.3789 113.608 93.0554 112.91 93.0554C112.329 93.0554 111.75 95.3789 111.75 98.2828V103.509H107.105H102.46V98.2828C102.46 95.3789 101.996 93.0554 101.298 93.0554C100.718 93.0554 100.138 95.3789 100.138 98.2828V103.509H95.4929H90.8481V97.7015V91.8936H85.0416H79.2361V41.9471C79.2361 9.42342 78.888 -8 78.0754 -8C77.3782 -8 76.9137 5.59026 76.9137 30.3315V68.6631H66.4634H56.0122V63.4356V58.2091H61.8186H67.6242V40.7855C67.6242 29.983 67.1597 23.3621 66.4634 23.3621C65.7662 23.3621 65.3018 29.7507 65.3018 40.2047V57.0474H60.657H56.0122V34.397V11.7466H61.8186H67.6242V5.93879C67.6242 2.68642 67.1597 0.130921 66.4634 0.130921C65.8826 0.130921 65.3018 2.45407 65.3018 5.358V10.585H60.657H56.0122V1.29249C56.0122 -4.16685 55.5477 -8 54.8515 -8C54.1543 -8 53.6898 -2.19213 53.6898 7.10027V22.2005H49.045H44.4003V16.3928V10.585H38.5947H32.7892V5.358V0.130921H38.5947H44.4003V-3.93449C44.4003 -6.14146 43.9367 -8 43.2395 -8C42.6587 -8 42.0788 -6.4899 42.0788 -4.63146C42.0788 -1.37909 41.8461 -1.14674 36.6205 -0.798302L31.0467 -0.449864L30.6986 5.00947L30.3505 10.585H25.7057H21.1773V5.358C21.1773 2.45407 20.7128 0.130921 20.0156 0.130921C19.4357 0.130921 18.8549 2.45407 18.8549 5.358V10.585H14.2101H9.56531V1.29249C9.56531 -4.16685 9.10084 -8 8.40366 -8C7.82375 -8 7.24292 -6.4899 7.24292 -4.51528C7.24292 -1.26291 7.01022 -1.03056 2.59814 -1.03056C-1.81431 -1.03056 -2.04655 -1.26291 -2.04655 -4.51528C-2.04655 -6.4899 -2.51103 -8 -3.20774 -8C-3.7883 -8 -4.36894 -6.4899 -4.36894 -4.63146Z" fill="black"/>
<path d="M88.5254 13.4888C88.5254 27.0791 88.9899 34.9777 89.6861 34.9777C90.3833 34.9777 90.8478 28.3567 90.8478 17.5542V0.130921H95.4926H100.137V17.5542C100.137 28.3567 100.602 34.9777 101.298 34.9777C101.994 34.9777 102.459 28.2407 102.459 16.9735V-1.03065H96.6533C90.9632 -1.03065 90.8478 -1.14683 90.8478 -4.51528C90.8478 -6.48999 90.3833 -8 89.6861 -8C88.9899 -8 88.5254 -0.101432 88.5254 13.4888Z" fill="black"/>
<path d="M111.75 13.4888V34.9777H118.716H125.683V29.1699C125.683 25.9175 125.218 23.3621 124.522 23.3621C123.941 23.3621 123.361 25.6852 123.361 28.5891V33.8161H118.716H114.072V12.908C114.072 -0.217513 113.607 -8 112.91 -8C112.214 -8 111.75 -0.101432 111.75 13.4888Z" fill="black"/>
<path d="M134.972 1.17632V10.4688L130.096 10.9334L125.102 11.398L130.096 11.5142L134.972 11.7465V28.4729V45.3156L130.096 45.7802C127.309 46.0124 132.534 46.2448 141.708 46.361L158.196 46.5932V51.7041V56.9309L153.319 57.3958L148.326 57.8607L153.319 57.9762L158.196 58.2091V69.8249C158.196 76.7936 158.661 81.4397 159.357 81.4397C160.054 81.4397 160.519 76.7936 160.519 69.8249V58.3247L172.479 57.8607L184.323 57.5123L172.479 57.2794L160.519 57.0474V51.8203V46.5932H166.324H172.131V40.2047V33.8161L166.092 34.0484C160.171 34.1645 160.171 34.2807 164.931 34.6292L169.808 35.0938V40.3208V45.4316H153.552H137.295V40.2047V34.9777H143.101H148.907V29.1699C148.907 25.9175 148.442 23.3621 147.745 23.3621C147.165 23.3621 146.584 25.6852 146.584 28.5891V33.8161H141.94H137.295V22.7813V11.7465H147.745H158.196V17.5542V23.3621L165.512 23.1298L172.711 22.8974L166.672 22.549L160.519 22.0844V11.0496C160.519 4.54487 160.054 0.130923 159.357 0.130923C158.777 0.130923 158.196 2.45407 158.196 5.35791V10.5849H147.745H137.295V5.47409V0.247097L143.449 -0.217511L149.488 -0.566041L143.449 -0.798301C137.411 -1.03065 137.295 -1.14683 137.295 -4.51528C137.295 -6.48999 136.83 -8 136.134 -8C135.437 -8 134.972 -4.16684 134.972 1.17632Z" fill="black"/>
<path d="M169.809 1.87319C169.809 7.68105 170.273 11.7465 170.97 11.7465C171.667 11.7465 172.131 9.07489 172.131 5.93869V0.13092H176.776H181.421V23.362V46.5932H187.226H193.032V58.209V69.8248H200H206.967V64.0169V58.209H212.772H218.578V52.401V46.5932H223.223H227.867V52.401C227.867 55.5371 228.448 58.209 229.029 58.209C229.725 58.209 230.19 55.3051 230.19 51.8202V45.4316H224.384H218.578V34.3969V23.362H223.223H227.867V29.1699V34.9776H233.674H239.479V52.401V69.8248H251.091H262.703V80.8591V91.8935H258.058H253.414V86.667C253.414 83.7631 252.949 81.4396 252.253 81.4396C251.672 81.4396 251.091 83.7631 251.091 86.5506V91.778L245.634 92.1264L240.06 92.4749L239.712 97.9343L239.363 103.509H234.718H230.19V92.5913V81.556L236.344 81.0911L242.383 80.7427L236.344 80.5107L230.19 80.2787V75.0513C230.19 72.1473 229.725 69.8248 229.029 69.8248C228.332 69.8248 227.867 74.2379 227.867 80.8591V91.8935H223.223H218.578V80.8591C218.578 74.2379 218.113 69.8248 217.417 69.8248C216.836 69.8248 216.255 72.1473 216.255 75.0513V80.1623L204.993 80.5107L193.613 80.8591L193.264 92.7068C193.032 100.373 193.381 104.671 194.193 104.671C194.89 104.671 195.355 100.257 195.355 93.0553V81.4396H200H204.644V87.2474C204.644 90.3843 205.224 93.0553 205.805 93.0553C206.502 93.0553 206.967 90.3843 206.967 87.2474V81.4396H211.612H216.255V87.2474V93.0553H222.062H227.867V98.8631V104.671H233.674H239.479V110.479V116.287H251.091H262.703V122.095C262.703 125.231 263.284 127.902 263.864 127.902C264.561 127.902 265.026 125.231 265.026 122.095V116.287H269.67H274.315V127.321V138.356H263.864H253.414V133.129C253.414 130.225 252.949 127.902 252.253 127.902C251.672 127.902 251.091 130.225 251.091 133.129V138.356H246.447H241.802V132.549V126.741H235.996H230.19V121.513C230.19 118.61 229.725 116.287 229.029 116.287C228.448 116.287 227.867 118.61 227.867 121.513V126.741H223.223H218.578V115.706C218.578 109.085 218.113 104.671 217.417 104.671C216.72 104.671 216.255 109.317 216.255 116.287V127.902H222.062H227.867V151.133C227.867 165.886 228.332 174.364 229.029 174.364C229.725 174.364 230.19 165.886 230.19 151.133V127.902H234.835H239.479V133.71V139.518H256.897H274.315V145.326C274.315 148.462 274.895 151.133 275.476 151.133C276.173 151.133 276.638 148.462 276.638 145.326V139.518H281.282H285.927V162.168V184.818H281.282H276.638V173.784C276.638 167.163 276.173 162.749 275.476 162.749C274.895 162.749 274.315 165.072 274.315 167.976V173.203H263.864H253.414V167.976V162.749H259.219H265.026V156.941C265.026 153.689 264.561 151.133 263.864 151.133C263.284 151.133 262.703 153.457 262.703 156.36V161.588H258.058H253.414V155.78V149.972L247.376 150.204C241.454 150.321 241.454 150.436 246.215 150.785L251.091 151.249V162.285V173.203H246.447H241.802V167.976C241.802 165.072 241.337 162.749 240.641 162.749C239.944 162.749 239.479 167.395 239.479 174.364C239.479 181.334 239.944 185.98 240.641 185.98C241.337 185.98 241.802 183.308 241.802 180.172V174.364H258.058H274.315V180.172V185.98H291.733H309.15V191.788V197.596L316.465 197.363L323.665 197.131L317.627 196.783L311.473 196.318V191.091V185.98H317.279H323.085V180.289V174.481L327.498 174.016L331.793 173.551L327.498 173.436L323.085 173.203V162.168C323.085 155.547 322.62 151.133 321.924 151.133C321.227 151.133 320.762 157.522 320.762 167.976V184.818H316.117H311.473V173.203V161.471L304.854 161.82L298.119 162.168L297.771 168.208C297.538 171.925 297.887 174.364 298.584 174.364C299.281 174.364 299.861 171.809 299.861 168.557V162.749H304.505H309.15V173.784V184.818H298.7H288.25V150.553C288.25 128.483 287.785 116.287 287.088 116.287C286.392 116.287 285.927 120.701 285.927 127.321V138.356H281.282H276.638V126.741V115.125H259.219H241.802V104.091V93.0553H252.253H262.703V98.1663V103.394L257.826 103.858C253.066 104.206 253.066 104.323 258.987 104.439L265.026 104.671V98.8631V93.0553H269.67H274.315V98.8631V104.671H287.088H299.861V98.8631C299.861 95.6108 299.396 93.0553 298.7 93.0553C298.119 93.0553 297.538 95.3788 297.538 98.2827V103.509H292.893H288.25V86.667V69.8248H292.893H297.538V75.6326C297.538 78.7685 298.119 81.4396 298.7 81.4396C299.396 81.4396 299.861 78.5356 299.861 75.0513V68.5465L293.242 68.895L286.507 69.2434L286.159 86.3186L285.811 103.509H281.282H276.638V92.4749C276.638 85.8537 276.173 81.4396 275.476 81.4396C274.895 81.4396 274.315 83.7631 274.315 86.667V91.8935H269.67H265.026V75.0513C265.026 64.5973 264.561 58.209 263.864 58.209C263.284 58.209 262.703 60.5316 262.703 63.4355V68.663H252.253H241.802V63.552V58.3245L247.956 57.8606L253.995 57.5122L247.956 57.2792L241.802 57.0473V46.0124V34.9776H246.447H251.091V40.7854C251.091 43.9216 251.672 46.5932 252.253 46.5932C252.949 46.5932 253.414 43.9216 253.414 40.7854V34.9776H258.058H262.703V40.7854C262.703 43.9216 263.284 46.5932 263.864 46.5932C264.561 46.5932 265.026 41.947 265.026 34.9776V23.362H276.638H288.25V17.6704V11.8626L294.403 11.398C300.21 10.9334 300.21 10.9334 293.474 11.0495L286.507 11.1657L286.159 16.625L285.811 22.2005H281.166H276.638V7.10026C276.638 -2.19223 276.173 -8 275.476 -8C274.78 -8 274.315 -2.19223 274.315 7.10026V22.2005H269.67H265.026V7.10026C265.026 -2.19223 264.561 -8 263.864 -8C263.284 -8 262.703 -6.48999 262.703 -4.63146C262.703 -1.37918 262.355 -1.14683 257.826 -0.682218L252.833 -0.217606L257.826 -0.101432L262.703 0.13092V16.9735V33.8161H258.058H253.414V22.2005V10.5849H247.608H241.802V5.3579C241.802 2.45397 241.337 0.13092 240.641 0.13092C240.06 0.13092 239.479 2.68633 239.479 5.93869V11.7465H245.286H251.091V22.7813V33.8161H246.447H241.802V28.5891C241.802 25.6852 241.337 23.362 240.641 23.362C240.06 23.362 239.479 25.6852 239.479 28.5891V33.8161H234.835H230.19V16.3927V-1.03065H212.772H195.355V-4.51537C195.355 -6.48999 194.89 -8 194.193 -8C193.497 -8 193.032 -3.93458 193.032 1.87319C193.032 7.68105 193.497 11.7465 194.193 11.7465C194.89 11.7465 195.355 9.07489 195.355 5.93869V0.13092H200H204.644V5.93869C204.644 9.07489 205.224 11.7465 205.805 11.7465C206.502 11.7465 206.967 9.07489 206.967 5.93869V0.13092H211.612H216.255V5.93869C216.255 9.07489 216.836 11.7465 217.417 11.7465C218.113 11.7465 218.578 9.07489 218.578 5.93869V0.13092H223.223H227.867V11.1657V22.0844L216.605 22.4328L205.224 22.7813L204.876 28.2406L204.528 33.8161H199.883H195.355V28.5891C195.355 25.6852 194.89 23.362 194.193 23.362C193.613 23.362 193.032 25.9175 193.032 29.1699V34.9776H198.838H204.644V40.7854C204.644 43.9216 205.224 46.5932 205.805 46.5932C206.502 46.5932 206.967 41.947 206.967 34.9776V23.362H211.612H216.255V40.0885V56.9308L210.798 57.2792L205.224 57.6277L204.876 63.0871L204.528 68.663H199.883H195.355V57.0473V45.4316H189.548H183.743V18.7158C183.743 1.64093 183.278 -8 182.581 -8C182.001 -8 181.421 -6.48999 181.421 -4.51537C181.421 -1.263 181.188 -1.03065 176.776 -1.03065C172.364 -1.03065 172.131 -1.263 172.131 -4.51537C172.131 -6.48999 171.667 -8 170.97 -8C170.273 -8 169.809 -3.93458 169.809 1.87319Z" fill="black"/>
<path d="M309.15 12.908V33.8161H304.505H299.86V28.5891C299.86 25.6852 299.396 23.362 298.7 23.362C298.119 23.362 297.538 25.6852 297.538 28.4729V33.6999L292.08 34.0484L286.507 34.3969L286.159 45.664L285.811 57.0473H281.281H276.636V46.0124C276.636 39.3916 276.172 34.9776 275.476 34.9776C274.778 34.9776 274.314 41.5985 274.314 52.401C274.314 63.2036 274.778 69.8248 275.476 69.8248C276.172 69.8248 276.636 67.1528 276.636 64.0169V58.209H282.443H288.248V46.5932V34.9776H298.7H309.15V40.0885V45.3155L303.692 45.664L298.119 46.0124L297.771 52.0525C297.538 55.77 297.886 58.209 298.583 58.209C299.279 58.209 299.86 55.6535 299.86 52.401V46.5932H304.505H309.15V58.209C309.15 65.1777 309.614 69.8248 310.311 69.8248C311.008 69.8248 311.472 65.1777 311.472 58.209V46.5932H316.117H320.762V58.209C320.762 65.1777 321.226 69.8248 321.923 69.8248C322.62 69.8248 323.084 67.2692 323.084 64.1324V58.3245L327.496 57.8606L331.793 57.3957L327.496 57.2792L323.084 57.0473V40.3208V23.4782L327.496 23.0136L331.793 22.549L327.496 22.4328L323.084 22.2005V11.1657C323.084 4.54486 322.62 0.13092 321.923 0.13092C321.226 0.13092 320.762 8.4941 320.762 22.7813V45.4316H316.117H311.472V18.7158C311.472 1.64093 311.008 -8 310.311 -8C309.614 -8 309.15 -0.217607 309.15 12.908Z" fill="black"/>
<path d="M-27.5926 74.935V80.1625L-33.0502 80.5109L-38.6238 80.8593L-38.9722 86.3188L-39.3205 91.7782L-44.1975 92.2431C-46.8682 92.4751 -44.1975 92.7071 -38.2755 92.8235L-27.5926 93.0555V98.8634V104.671H-15.9808H-4.369V116.287V127.903H7.24276H18.8548V133.711V139.518H24.6603H30.4667V150.553V161.588H25.8219H21.1772V155.78V149.972H15.3707H9.56516V144.745C9.56516 141.841 9.10068 139.518 8.4035 139.518C7.8236 139.518 7.24276 141.841 7.24276 144.745V149.972H2.59808H-2.0467V144.165V138.357H-7.8526H-13.6584V133.129C-13.6584 130.225 -14.1229 127.903 -14.8196 127.903C-15.5163 127.903 -15.9808 132.549 -15.9808 139.518C-15.9808 146.487 -15.5163 151.133 -14.8196 151.133C-14.1229 151.133 -13.6584 148.462 -13.6584 145.326V139.518H-9.01378H-4.369V151.133C-4.369 158.103 -3.90452 162.749 -3.20781 162.749C-2.51118 162.749 -2.0467 160.078 -2.0467 156.941V151.133H2.59808H7.24276V156.941C7.24276 160.078 7.8236 162.749 8.4035 162.749C9.10068 162.749 9.56516 160.078 9.56516 156.941V151.133H14.21H18.8548V156.941V162.749H24.6603H30.4667V185.98C30.4667 200.732 30.9312 209.212 31.6275 209.212C32.3246 209.212 32.7891 206.54 32.7891 203.404V197.596H37.4339H42.0787V204.566C42.0787 208.399 42.5432 211.535 43.2394 211.535C43.9366 211.535 44.4011 208.399 44.4011 204.566V197.596H50.2066H56.0121V191.788C56.0121 188.536 55.5476 185.98 54.8514 185.98C54.2705 185.98 53.6897 188.304 53.6897 191.208V196.434H49.0449H44.4011V191.208C44.4011 188.304 43.9366 185.98 43.2394 185.98C42.6586 185.98 42.0787 188.304 42.0787 191.208V196.434H37.4339H32.7891V173.784V151.133H37.4339H42.0787V156.941C42.0787 160.078 42.6586 162.749 43.2394 162.749C43.9366 162.749 44.4011 159.845 44.4011 156.361V149.972H38.5946H32.7891V138.937C32.7891 132.317 32.3246 127.903 31.6275 127.903C31.0466 127.903 30.4667 130.225 30.4667 133.129V138.357H25.8219H21.1772V126.741V115.125L15.1389 115.358C9.21703 115.474 9.21703 115.59 13.9773 115.939L18.8548 116.403V121.63V126.741H8.4035H-2.0467V103.509V80.2789L-8.08484 80.5109C-14.0068 80.6274 -14.0068 80.7429 -9.24603 81.0913L-4.369 81.5562V92.5915V103.509H-9.01378H-13.6584V98.2829C-13.6584 95.379 -14.1229 93.0555 -14.8196 93.0555C-15.4002 93.0555 -15.9808 95.379 -15.9808 98.2829V103.509H-20.6255H-25.2703V97.7016V91.8937H-31.0762H-36.8821V86.6672V81.4398H-31.0762H-25.2703V75.6328C-25.2703 72.3804 -25.7348 69.825 -26.4314 69.825C-27.012 69.825 -27.5926 72.1475 -27.5926 74.935Z" fill="black"/>
<path d="M316.465 81.0914C319.485 81.3243 324.246 81.3243 326.916 81.0914C329.587 80.8594 327.148 80.7429 321.343 80.7429C315.653 80.7429 313.447 80.8594 316.465 81.0914Z" fill="black"/>
<path d="M42.0781 87.2476V93.0554H47.8846H53.6901V104.671V116.287H59.4965H65.302V121.398V126.624L59.8446 126.973L54.2709 127.321L53.9228 132.781L53.5737 138.24L48.6972 138.705L43.8206 139.17L48.8135 139.285L53.6901 139.518V156.244V173.087L48.8135 173.551C44.0524 173.9 44.0524 174.016 49.9742 174.133L56.0125 174.365V162.749V151.133H60.6572H65.302V174.365V197.596H71.1075H76.914V204.566C76.914 208.398 77.3785 211.534 78.0747 211.534C78.7719 211.534 79.2364 208.282 79.2364 203.984V196.434H73.4299H67.6244V179.592V162.749H73.4299H79.2364V156.941C79.2364 153.689 78.7719 151.133 78.0747 151.133C77.4948 151.133 76.914 153.457 76.914 156.361V161.588H72.2692H67.6244V155.78V149.972H61.8189H56.0125V138.937V127.903H60.6572H65.302V133.71C65.302 136.846 65.8829 139.518 66.4628 139.518C67.1599 139.518 67.6244 136.846 67.6244 133.71V127.903H72.2692H76.914V133.71C76.914 136.846 77.4948 139.518 78.0747 139.518C78.7719 139.518 79.2364 134.871 79.2364 128.018V116.403L85.39 115.938C91.1964 115.474 91.1965 115.474 84.462 115.59L77.4948 115.706L77.1458 121.165L76.7976 126.741H72.1529H67.6244V120.933V115.125H61.8189H56.0125V103.509V91.8937H50.2069H44.4005V86.6671C44.4005 83.7632 43.936 81.4397 43.2398 81.4397C42.6589 81.4397 42.0781 83.9952 42.0781 87.2476Z" fill="black"/>
<path d="M309.15 103.974V115.009L303.692 115.358L298.119 115.706L297.77 133.362L297.421 151.133H304.505H311.472V145.326C311.472 142.074 311.008 139.518 310.31 139.518C309.73 139.518 309.15 141.841 309.15 144.745V149.972H304.505H299.86V139.053V128.018L306.015 127.554L312.053 127.206L306.015 126.973L299.86 126.741V121.513V116.287H310.31H320.762V127.903C320.762 134.871 321.226 139.518 321.922 139.518C322.619 139.518 323.084 133.014 323.084 122.211V104.788L327.496 104.323L331.793 103.858L327.496 103.742L323.084 103.509V98.2829C323.084 95.3789 322.619 93.0554 321.922 93.0554C321.226 93.0554 320.762 97.4695 320.762 104.091V115.125H316.117H311.472V104.091C311.472 97.4695 311.008 93.0554 310.31 93.0554C309.614 93.0554 309.15 97.4696 309.15 103.974Z" fill="black"/>
<path d="M-50.8164 110.479V116.287H-39.2046H-27.5928V127.321V138.357H-32.2375H-36.8823V133.129C-36.8823 130.225 -37.3467 127.903 -38.0434 127.903C-38.624 127.903 -39.2046 130.225 -39.2046 133.129V138.357H-43.8493H-48.494V133.129C-48.494 130.225 -48.9585 127.903 -49.6552 127.903C-50.2359 127.903 -50.8164 130.458 -50.8164 133.71V139.518H-39.2046H-27.5928V144.628V149.856L-32.4697 150.321L-37.4628 150.785L-32.4697 150.901L-27.5928 151.133V156.941V162.749H-21.7869H-15.9809V173.784V184.819H-20.6257H-25.2704V179.592C-25.2704 176.688 -25.7349 174.365 -26.4316 174.365C-27.0122 174.365 -27.5928 176.92 -27.5928 180.172V185.98H-10.175H7.24268V197.596C7.24268 204.566 7.70716 209.212 8.40342 209.212C9.1006 209.212 9.56507 206.54 9.56507 203.404V197.596H14.2099H18.8546V204.566C18.8546 208.398 19.3191 211.534 20.0154 211.534C20.7126 211.534 21.177 204.333 21.177 192.369V173.203L15.1388 173.436C9.21694 173.551 9.21694 173.668 13.9772 174.016L18.8546 174.481V185.515V196.434H14.2099H9.56507V190.626V184.819H3.7591H-2.04679V179.592C-2.04679 176.688 -2.51126 174.365 -3.20798 174.365C-3.78862 174.365 -4.36917 176.688 -4.36917 179.592V184.819H-9.01386H-13.6586V173.203V161.588H-19.4645H-25.2704V139.053V116.403L-19.1162 115.938C-15.8649 115.706 -18.4195 115.474 -24.9221 115.358L-36.8823 115.125V109.899C-36.8823 106.995 -37.3467 104.671 -38.0434 104.671C-38.624 104.671 -39.2046 106.995 -39.2046 109.899V115.125H-43.8493H-48.494V109.899C-48.494 106.995 -48.9585 104.671 -49.6552 104.671C-50.2359 104.671 -50.8164 107.227 -50.8164 110.479Z" fill="black"/>
<path d="M169.809 185.98V197.596H175.614H181.421V203.404V209.212H187.111C190.594 209.212 193.148 209.792 193.497 210.605C194.077 211.767 194.31 211.767 194.89 210.721C195.703 208.979 204.644 208.63 204.644 210.373C204.644 210.954 205.224 211.534 205.805 211.534C206.502 211.534 206.967 210.721 206.967 209.792C206.967 208.398 204.876 208.05 195.355 208.05H183.743V197.015C183.743 190.394 183.278 185.98 182.581 185.98C182.001 185.98 181.421 188.304 181.421 191.208V196.434H176.776H172.131V185.4C172.131 178.779 171.667 174.365 170.97 174.365C170.273 174.365 169.809 179.011 169.809 185.98Z" fill="black"/>
<path d="M327.6 101.767C327.6 174.133 327.948 211.534 328.76 211.534C329.458 211.534 329.922 196.783 329.922 169.718V127.903H333.405C336.773 127.903 336.889 128.018 336.889 133.71V139.518H342.695H348.501V144.628V149.856L342.927 150.204L337.47 150.553L337.121 156.592L336.773 162.749L344.088 162.517L351.403 162.285L345.366 161.936L339.212 161.471V156.244V151.133H345.017H350.824V144.745V138.356H345.017H339.212V133.129V127.903H345.017H350.824V121.513V115.125H345.017H339.212V104.091C339.212 97.4694 338.747 93.0553 338.05 93.0553C337.354 93.0553 336.889 97.7014 336.889 104.671V116.287H342.695H348.501V121.513V126.741H339.212H329.922V104.091V81.4396H339.212H348.501V87.2474C348.501 90.3843 349.081 93.0553 349.662 93.0553C350.359 93.0553 350.824 90.3843 350.824 87.2474V81.4396H355.468H360.113V87.2474C360.113 90.3843 360.693 93.0553 361.274 93.0553C361.971 93.0553 362.435 86.435 362.435 75.6326V58.209H378.691H394.948V69.2434V80.2787H390.303H385.658V75.0513C385.658 72.1474 385.194 69.8248 384.498 69.8248C383.917 69.8248 383.336 72.3803 383.336 75.6326V81.4396H389.142H394.948V86.667V91.8935H384.498H374.047V80.8592C374.047 74.238 373.582 69.8248 372.886 69.8248C372.189 69.8248 371.724 84.1115 371.724 110.479C371.724 136.846 372.189 151.133 372.886 151.133C373.582 151.133 374.047 146.487 374.047 139.518V127.903H378.691H383.336V139.518C383.336 146.487 383.801 151.133 384.498 151.133C385.194 151.133 385.658 144.513 385.658 133.71C385.658 122.908 385.194 116.287 384.498 116.287C383.917 116.287 383.336 118.61 383.336 121.513V126.741H378.691H374.047V109.898V93.0553H378.691H383.336V98.8632C383.336 102 383.917 104.671 384.498 104.671C385.194 104.671 385.658 102 385.658 98.8632V93.0553H391.465H397.27V69.8248V46.5932H401.915H406.56V74.9348V103.394L401.683 103.858L396.69 104.323L401.683 104.439L406.56 104.671V116.287C406.56 123.256 407.024 127.903 407.721 127.903C408.418 127.903 408.882 123.256 408.882 116.287V104.671H413.527H418.172V116.287C418.172 123.256 418.636 127.903 419.333 127.903C420.03 127.903 420.494 123.023 420.494 115.706V103.509H414.688H408.882V98.3983V93.1718L415.037 92.7069L421.075 92.3584L415.037 92.1265L408.882 91.8935V80.8592V69.8248H413.527H418.172V75.6326C418.172 78.7685 418.753 81.4396 419.333 81.4396C420.03 81.4396 420.494 78.5356 420.494 75.0513V68.663H414.688H408.882V51.8203C408.882 41.3662 408.418 34.9777 407.721 34.9777C407.141 34.9777 406.56 37.3008 406.56 40.2046V45.4316H401.915H397.27V40.2046C397.27 37.3008 396.806 34.9777 396.11 34.9777C395.412 34.9777 394.948 39.3916 394.948 46.0124V57.0473H390.303H385.658V40.2046V23.3621H391.465H397.27V17.5542V11.7465H401.915H406.56V17.5542V23.3621H412.365H418.172V40.7854C418.172 51.5879 418.636 58.209 419.333 58.209C420.03 58.209 420.494 51.5879 420.494 40.7854V23.3621H425.139H429.784V52.4011C429.784 70.9856 430.248 81.4396 430.945 81.4396C431.642 81.4396 432.106 70.9856 432.106 52.4011V23.3621H436.751H441.396V46.5932C441.396 61.3449 441.86 69.8248 442.557 69.8248C443.254 69.8248 443.718 67.2693 443.718 64.1324V58.3246L449.872 57.8606L455.91 57.5122L449.872 57.2793L443.718 57.0473V40.2046V23.3621H448.362H453.007V29.1699C453.007 32.3061 453.588 34.9777 454.168 34.9777C454.865 34.9777 455.329 32.0737 455.329 28.5891V22.2005H432.106H408.882V7.10027C408.882 -2.19223 408.418 -8 407.721 -8C407.141 -8 406.56 -6.48999 406.56 -4.51537C406.56 -1.263 406.327 -1.03065 401.915 -1.03065C397.503 -1.03065 397.27 -1.263 397.27 -4.51537C397.27 -6.48999 396.806 -8 396.11 -8C395.529 -8 394.948 -6.48999 394.948 -4.51537C394.948 -1.263 394.716 -1.03065 390.303 -1.03065C385.891 -1.03065 385.658 -1.263 385.658 -4.51537C385.658 -6.48999 385.194 -8 384.498 -8C383.917 -8 383.336 -6.14146 383.336 -3.93459V0.130921H394.948H406.56V5.35791V10.5849L395.877 10.8172C389.955 10.9334 387.285 11.1657 390.071 11.398L394.948 11.8626V16.9735V22.0844L389.491 22.4328L383.917 22.7813L383.569 28.2407L383.221 33.6999L377.762 34.0484L372.305 34.3969L371.957 40.437C371.724 44.154 372.073 46.5932 372.769 46.5932C373.467 46.5932 374.047 44.0378 374.047 40.7854V34.9777H378.691H383.336V46.0124V57.0473H372.886H362.435V51.2395V45.4316L356.397 45.664C350.474 45.7802 350.474 45.8963 355.236 46.2448L360.113 46.7094V51.8203V56.9308L355.236 57.3957L350.243 57.8606L355.236 57.9761L360.113 58.209V69.2434V80.2787H355.468H350.824V75.0513C350.824 72.1474 350.359 69.8248 349.662 69.8248C349.081 69.8248 348.501 72.1474 348.501 75.0513V80.2787H343.856H339.212V69.2434C339.212 62.6232 338.747 58.209 338.05 58.209C337.354 58.209 336.889 62.6232 336.889 69.2434V80.2787H333.405H329.922V51.8203V23.3621H333.405H336.889V34.9777C336.889 41.947 337.354 46.5932 338.05 46.5932C338.747 46.5932 339.212 39.9724 339.212 29.1699V11.7465H343.856H348.501V23.3621V34.9777L355.816 34.7453L363.015 34.513L356.977 34.1645L350.824 33.6999V22.6651V11.7465H355.468H360.113V17.5542C360.113 20.6905 360.693 23.3621 361.274 23.3621C361.971 23.3621 362.435 20.6905 362.435 17.5542V11.7465H367.079H371.724V17.5542C371.724 20.6905 372.305 23.3621 372.886 23.3621C373.582 23.3621 374.047 20.4582 374.047 16.9735V10.5849H368.241H362.435V5.35791C362.435 2.45407 361.971 0.130921 361.274 0.130921C360.693 0.130921 360.113 2.45407 360.113 5.35791V10.5849H355.468H350.824V5.35791C350.824 2.45407 350.359 0.130921 349.662 0.130921C349.081 0.130921 348.501 2.45407 348.501 5.24173V10.4688L342.927 10.8172L337.47 11.1657L337.121 16.625C336.773 21.9682 336.541 22.2005 333.29 22.2005H329.922V7.10027C329.922 -2.19223 329.458 -8 328.76 -8C327.948 -8 327.6 29.4021 327.6 101.767Z" fill="black"/>
<path d="M418.172 1.87328C418.172 7.68106 418.637 11.7466 419.333 11.7466C420.03 11.7466 420.495 9.07498 420.495 5.9387V0.130921H425.14H429.784V5.9387C429.784 9.07498 430.365 11.7466 430.945 11.7466C431.642 11.7466 432.107 9.07498 432.107 5.9387V0.130921H436.751H441.396V5.9387V11.7466H448.363H455.33V1.87328C455.33 -3.93449 454.866 -8 454.169 -8C453.473 -8 453.008 -4.16685 453.008 1.29249V10.585H448.363H443.719V1.29249C443.719 -4.16685 443.254 -8 442.557 -8C441.976 -8 441.396 -6.48999 441.396 -4.51528V-1.03065H430.945H420.495V-4.51528C420.495 -6.48999 420.03 -8 419.333 -8C418.637 -8 418.172 -3.93449 418.172 1.87328Z" fill="black"/>
<path d="M476.231 -4.63146C476.231 -1.37909 475.883 -1.14674 471.354 -0.682124C468.568 -0.449865 471.238 -0.217515 477.16 -0.101339L487.843 0.130921V11.7466V23.3621H493.649H499.455V40.2047V57.0474H494.81H490.165V46.0125C490.165 39.3916 489.701 34.9777 489.004 34.9777C488.307 34.9777 487.843 39.3916 487.843 46.0125V57.0474H483.198H478.553V33.8162V10.585L472.515 10.8172C466.593 10.9334 466.593 11.0496 471.354 11.398L476.231 11.8627V22.8975V33.8162H471.586H466.941V28.5891C466.941 25.6853 466.477 23.3621 465.781 23.3621C465.2 23.3621 464.619 25.9175 464.619 29.1699V34.9777H470.426H476.231V40.2047V45.4317L465.548 45.6641C459.626 45.7802 456.956 46.0125 459.743 46.2449L464.619 46.7095V58.3247C464.619 65.1778 465.084 69.8249 465.781 69.8249C466.477 69.8249 466.941 65.1778 466.941 58.2091V46.5933H471.586H476.231V52.4011V58.2091H487.843H499.455V75.0514V91.8936H494.81H490.165V80.2788V68.6631L484.127 68.8951C478.205 69.0115 478.205 69.1271 482.966 69.4764L487.843 69.9404V81.5561V93.0554H499.455H511.067V98.2828V103.394L500.384 103.858L489.585 104.206L500.384 104.439L511.067 104.671V110.479V116.287H516.872H522.679V122.095C522.679 125.231 523.259 127.903 523.84 127.903C524.537 127.903 525 123.256 525 116.287C525 109.317 524.537 104.671 523.84 104.671C523.259 104.671 522.679 106.995 522.679 109.899V115.125H518.034H513.389V98.2828C513.389 87.8289 512.925 81.4397 512.228 81.4397C511.647 81.4397 511.067 83.7632 511.067 86.6671V91.8936H506.422H501.777V75.0514V58.2091H507.583H513.389V46.5933C513.389 39.624 512.925 34.9777 512.228 34.9777C511.531 34.9777 511.067 39.3916 511.067 46.0125V57.0474H506.422H501.777V39.6239V22.2005H495.971H490.165V16.9735V11.7466H500.616H511.067V17.5543C511.067 20.6905 511.647 23.3621 512.228 23.3621C512.925 23.3621 513.389 20.6905 513.389 17.5543V11.7466H518.034H522.679V40.0886V68.5466L517.801 69.0115C513.04 69.36 513.04 69.4764 518.963 69.592L525 69.8249V46.5933V23.3621H529.645H534.29V52.4011V81.4397H540.096H545.902V93.0554C545.902 100.025 546.366 104.671 547.063 104.671C547.76 104.671 548.224 99.793 548.224 92.475V80.2788H542.419H536.612V75.0514V69.8249H547.063H557.514V87.2475C557.514 98.0499 557.978 104.671 558.675 104.671C559.372 104.671 559.836 101.999 559.836 98.8633V93.0554H564.481H569.126V98.8633V104.671H580.738H592.35V109.782V115.009L587.472 115.474L582.479 115.938L587.472 116.055L592.35 116.287V121.513V126.624L581.086 126.973L569.707 127.321L569.357 133.362C569.126 137.078 569.474 139.518 570.171 139.518C570.867 139.518 571.448 136.963 571.448 133.71V127.903H581.898H592.35V133.014V138.24L587.472 138.705C582.711 139.053 582.711 139.17 588.634 139.285L594.672 139.518V133.71V127.903H599.317H603.961V133.71C603.961 136.846 604.541 139.518 605.122 139.518C605.819 139.518 606.283 136.614 606.283 133.129V126.741H600.478H594.672V115.706V104.671H599.317H603.961V110.479C603.961 113.615 604.541 116.287 605.122 116.287C605.819 116.287 606.283 113.615 606.283 110.479V104.671H616.734H627.185V109.782V115.009L621.727 115.357L616.153 115.706L615.805 127.554C615.573 135.22 615.922 139.518 616.734 139.518C617.315 139.518 617.895 136.963 617.895 133.71V127.903H622.54H627.185V139.518C627.185 146.487 627.649 151.133 628.346 151.133C629.043 151.133 629.507 146.487 629.507 139.518V127.903H634.152H638.797V144.745V161.587H628.346H617.895V156.361C617.895 153.457 617.431 151.133 616.734 151.133C616.153 151.133 615.573 153.457 615.573 156.361V161.587H610.928H606.283V156.361C606.283 153.457 605.819 151.133 605.122 151.133C604.425 151.133 603.961 155.547 603.961 162.168V173.203H593.51H583.06V167.976V162.749H588.866H594.672V156.941C594.672 153.689 594.208 151.133 593.51 151.133C592.93 151.133 592.35 153.457 592.35 156.361V161.587H587.705H583.06V156.361C583.06 153.457 582.596 151.133 581.898 151.133C581.202 151.133 580.738 157.522 580.738 167.976V184.819H576.093H571.448V167.976C571.448 157.522 570.984 151.133 570.286 151.133C569.59 151.133 569.126 155.547 569.126 162.052V173.087L563.668 173.436L558.095 173.784L557.746 179.94C557.514 183.541 557.862 185.98 558.559 185.98C559.255 185.98 559.836 183.425 559.836 180.172V174.365H564.481H569.126V180.172V185.98H574.931H580.738V198.758C580.738 206.54 581.202 211.534 581.898 211.534C582.596 211.534 583.06 204.565 583.06 192.95V174.365H593.51H603.961V185.4V196.434H599.317H594.672V191.207C594.672 188.304 594.208 185.98 593.51 185.98C592.814 185.98 592.35 190.626 592.35 197.596C592.35 204.565 592.814 209.212 593.51 209.212C594.208 209.212 594.672 206.54 594.672 203.404V197.596H600.478H606.283V180.172V162.749H610.928H615.573V168.557C615.573 171.693 616.153 174.365 616.734 174.365C617.431 174.365 617.895 171.693 617.895 168.557V162.749H622.54H627.185V174.365C627.185 181.334 627.649 185.98 628.346 185.98C629.043 185.98 629.507 181.334 629.507 174.365V162.749H634.152H638.797V185.98C638.797 200.732 639.261 209.212 639.957 209.212C640.654 209.212 641.119 200.732 641.119 185.98V162.749H646.924H652.731V156.941V151.133H663.181H673.632V156.244V161.472L668.174 161.82L662.6 162.168L662.252 168.325C662.02 171.926 662.369 174.365 663.065 174.365C663.762 174.365 664.343 171.809 664.343 168.557V162.749H668.988H673.632V180.172V197.596L680.948 197.363L688.147 197.131L682.108 196.783L675.954 196.318V191.207V186.097L682.108 185.632L688.147 185.283L682.108 185.051L675.954 184.819V167.976V151.133H680.599H685.243V162.749V174.365H691.05H696.855V191.788V209.212H702.545C706.029 209.212 708.584 209.792 708.932 210.606C709.513 211.883 709.744 211.883 710.325 210.606C711.138 208.979 720.079 208.63 720.079 210.373C720.079 210.954 720.66 211.534 721.24 211.534C721.937 211.534 722.402 208.398 722.402 204.565V197.596H727.046H731.691V204.565C731.691 208.398 732.156 211.534 732.852 211.534C733.549 211.534 734.014 210.954 734.014 210.373C734.014 208.63 742.954 208.979 743.768 210.606C744.348 211.883 744.58 211.883 745.161 210.606C745.626 209.56 750.386 209.212 763.159 209.212H780.461V203.404C780.461 200.152 779.996 197.596 779.3 197.596C778.719 197.596 778.138 199.919 778.138 202.823V208.05H773.493H768.849V202.823C768.849 199.919 768.384 197.596 767.688 197.596C767.107 197.596 766.526 199.919 766.526 202.823V208.05H761.881H757.237V202.242V196.434H751.431H745.626V190.626V184.819L739.587 185.051C733.666 185.167 733.666 185.283 738.426 185.632L743.303 186.097V191.905V197.596H749.109H754.914V202.823V208.05H744.464H734.014V202.242V196.318L727.395 196.666L720.66 197.015L720.311 202.591L719.963 208.05H715.318H710.79V197.015C710.79 190.394 710.325 185.98 709.629 185.98C708.932 185.98 708.467 190.394 708.467 197.015V208.05H703.823H699.178V190.626V173.203H693.372H687.566V168.092V162.865L693.72 162.4L699.759 162.052L693.72 161.82L687.566 161.587V156.361V151.133H693.372H699.178V145.326C699.178 142.074 698.713 139.518 698.017 139.518C697.436 139.518 696.855 141.841 696.855 144.745V149.972H692.211H687.566V138.937C687.566 132.317 687.101 127.903 686.405 127.903C685.708 127.903 685.243 132.317 685.243 138.937V149.972H680.599H675.954V133.129V116.287H681.76H687.566V110.479C687.566 107.227 687.101 104.671 686.405 104.671C685.824 104.671 685.243 106.995 685.243 109.782V115.009L679.786 115.357L674.212 115.706L673.864 132.897L673.516 149.972H668.988H664.343V144.745C664.343 141.841 663.878 139.518 663.181 139.518C662.6 139.518 662.02 141.841 662.02 144.745V149.972H657.376H652.731V138.937V127.903H658.536H664.343V110.479C664.343 99.6766 663.878 93.0554 663.181 93.0554C662.485 93.0554 662.02 99.4446 662.02 109.899V126.741H657.376H652.731V104.091V81.4397H658.536H664.343V75.6318C664.343 72.3794 663.878 69.8249 663.181 69.8249C662.6 69.8249 662.02 72.1474 662.02 75.0514V80.2788H657.376H652.731V75.0514C652.731 72.1474 652.266 69.8249 651.569 69.8249C650.873 69.8249 650.408 74.2381 650.408 80.7428V91.7781L645.531 92.2421L640.538 92.707L645.531 92.8234L650.408 93.0554V98.1664V103.394L645.531 103.858L640.538 104.323L645.531 104.439L650.408 104.671V133.129V161.587H645.764H641.119V144.164V126.741H629.507H617.895V121.513V116.287L629.855 116.055C636.358 115.938 638.913 115.706 635.662 115.474L629.507 115.009V92.3585C629.507 78.0718 629.043 69.8249 628.346 69.8249C627.765 69.8249 627.185 72.1474 627.185 75.0514V80.2788H622.54H617.895V69.2435C617.895 62.6232 617.431 58.2091 616.734 58.2091C616.037 58.2091 615.573 62.8552 615.573 69.8249V81.4397H621.379H627.185V86.6671V91.8936H616.734H606.283V80.2788V68.6631H600.478H594.672V63.5521V58.3247L600.826 57.8607L606.864 57.5123L600.826 57.2793L594.672 57.0474V51.2395V45.3155L582.247 45.6641L569.707 46.0125L569.357 63.6686C569.126 75.2834 569.474 81.4397 570.286 81.4397C570.984 81.4397 571.448 75.1678 571.448 64.017V46.5933H576.093H580.738V64.017C580.738 74.8194 581.202 81.4397 581.898 81.4397C582.596 81.4397 583.06 74.8194 583.06 64.017V46.5933H587.705H592.35V64.017C592.35 74.8194 592.814 81.4397 593.51 81.4397C594.208 81.4397 594.672 78.7686 594.672 75.6318V69.8249H599.317H603.961V81.4397V93.0554H615.573H627.185V98.2828V103.509H610.928H594.672V98.2828C594.672 95.3789 594.208 93.0554 593.51 93.0554C592.93 93.0554 592.35 95.3789 592.35 98.2828V103.509H587.705H583.06V98.2828C583.06 95.3789 582.596 93.0554 581.898 93.0554C581.318 93.0554 580.738 95.3789 580.738 98.2828V103.509H576.093H571.448V97.7015V91.8936H565.642H559.836V41.9471C559.836 9.42342 559.488 -8 558.675 -8C557.978 -8 557.514 5.59026 557.514 30.3315V68.6631H547.063H536.612V63.4356V58.2091H542.419H548.224V40.7855C548.224 29.983 547.76 23.3621 547.063 23.3621C546.366 23.3621 545.902 29.7507 545.902 40.2047V57.0474H541.257H536.612V34.397V11.7466H542.419H548.224V5.93879C548.224 2.68642 547.76 0.130921 547.063 0.130921C546.483 0.130921 545.902 2.45407 545.902 5.358V10.585H541.257H536.612V1.29249C536.612 -4.16685 536.148 -8 535.452 -8C534.754 -8 534.29 -2.19213 534.29 7.10027V22.2005H529.645H525V16.3928V10.585H519.195H513.389V5.358V0.130921H519.195H525V-3.93449C525 -6.14146 524.537 -8 523.84 -8C523.259 -8 522.679 -6.4899 522.679 -4.63146C522.679 -1.37909 522.446 -1.14674 517.221 -0.798302L511.647 -0.449864L511.299 5.00947L510.951 10.585H506.306H501.777V5.358C501.777 2.45407 501.313 0.130921 500.616 0.130921C500.036 0.130921 499.455 2.45407 499.455 5.358V10.585H494.81H490.165V1.29249C490.165 -4.16685 489.701 -8 489.004 -8C488.424 -8 487.843 -6.4899 487.843 -4.51528C487.843 -1.26291 487.61 -1.03056 483.198 -1.03056C478.786 -1.03056 478.553 -1.26291 478.553 -4.51528C478.553 -6.4899 478.089 -8 477.393 -8C476.812 -8 476.231 -6.4899 476.231 -4.63146Z" fill="black"/>
<path d="M569.126 13.4888C569.126 27.0791 569.59 34.9777 570.287 34.9777C570.984 34.9777 571.448 28.3567 571.448 17.5542V0.130921H576.093H580.738V17.5542C580.738 28.3567 581.202 34.9777 581.899 34.9777C582.595 34.9777 583.059 28.2407 583.059 16.9735V-1.03065H577.254C571.564 -1.03065 571.448 -1.14683 571.448 -4.51528C571.448 -6.48999 570.984 -8 570.287 -8C569.59 -8 569.126 -0.101432 569.126 13.4888Z" fill="black"/>
<path d="M592.35 13.4888V34.9777H599.316H606.283V29.1699C606.283 25.9175 605.819 23.3621 605.122 23.3621C604.542 23.3621 603.961 25.6852 603.961 28.5891V33.8161H599.316H594.672V12.908C594.672 -0.217513 594.208 -8 593.51 -8C592.814 -8 592.35 -0.101432 592.35 13.4888Z" fill="black"/>
<path d="M615.573 1.17632V10.4688L610.696 10.9334L605.703 11.398L610.696 11.5142L615.573 11.7465V28.4729V45.3156L610.696 45.7802C607.91 46.0124 613.134 46.2448 622.308 46.361L638.797 46.5932V51.7041V56.9309L633.919 57.3958L628.927 57.8607L633.919 57.9762L638.797 58.2091V69.8249C638.797 76.7936 639.261 81.4397 639.958 81.4397C640.655 81.4397 641.119 76.7936 641.119 69.8249V58.3247L653.079 57.8607L664.923 57.5123L653.079 57.2794L641.119 57.0474V51.8203V46.5932H646.925H652.731V40.2047V33.8161L646.693 34.0484C640.771 34.1645 640.771 34.2807 645.531 34.6292L650.409 35.0938V40.3208V45.4316H634.152H617.895V40.2047V34.9777H623.702H629.507V29.1699C629.507 25.9175 629.043 23.3621 628.346 23.3621C627.766 23.3621 627.185 25.6852 627.185 28.5891V33.8161H622.54H617.895V22.7813V11.7465H628.346H638.797V17.5542V23.3621L646.112 23.1298L653.311 22.8974L647.273 22.549L641.119 22.0844V11.0496C641.119 4.54487 640.655 0.130923 639.958 0.130923C639.378 0.130923 638.797 2.45407 638.797 5.35791V10.5849H628.346H617.895V5.47409V0.247097L624.05 -0.217511L630.088 -0.566041L624.05 -0.798301C618.012 -1.03065 617.895 -1.14683 617.895 -4.51528C617.895 -6.48999 617.431 -8 616.735 -8C616.038 -8 615.573 -4.16684 615.573 1.17632Z" fill="black"/>
<path d="M650.409 1.87319C650.409 7.68105 650.873 11.7465 651.57 11.7465C652.267 11.7465 652.731 9.07489 652.731 5.93869V0.13092H657.376H662.021V23.362V46.5932H667.826H673.633V58.209V69.8248H680.6H687.567V64.0169V58.209H693.372H699.178V52.401V46.5932H703.823H708.468V52.401C708.468 55.5371 709.048 58.209 709.629 58.209C710.325 58.209 710.79 55.3051 710.79 51.8202V45.4316H704.984H699.178V34.3969V23.362H703.823H708.468V29.1699V34.9776H714.274H720.08V52.401V69.8248H731.691H743.303V80.8591V91.8935H738.659H734.014V86.667C734.014 83.7631 733.549 81.4396 732.853 81.4396C732.272 81.4396 731.691 83.7631 731.691 86.5506V91.778L726.234 92.1264L720.66 92.4749L720.312 97.9343L719.963 103.509H715.318H710.79V92.5913V81.556L716.945 81.0911L722.983 80.7427L716.945 80.5107L710.79 80.2787V75.0513C710.79 72.1473 710.325 69.8248 709.629 69.8248C708.932 69.8248 708.468 74.2379 708.468 80.8591V91.8935H703.823H699.178V80.8591C699.178 74.2379 698.714 69.8248 698.017 69.8248C697.436 69.8248 696.856 72.1473 696.856 75.0513V80.1623L685.593 80.5107L674.213 80.8591L673.864 92.7068C673.633 100.373 673.981 104.671 674.793 104.671C675.491 104.671 675.955 100.257 675.955 93.0553V81.4396H680.6H685.245V87.2474C685.245 90.3843 685.824 93.0553 686.405 93.0553C687.102 93.0553 687.567 90.3843 687.567 87.2474V81.4396H692.212H696.856V87.2474V93.0553H702.662H708.468V98.8631V104.671H714.274H720.08V110.479V116.287H731.691H743.303V122.095C743.303 125.231 743.884 127.902 744.464 127.902C745.161 127.902 745.626 125.231 745.626 122.095V116.287H750.271H754.915V127.321V138.356H744.464H734.014V133.129C734.014 130.225 733.549 127.902 732.853 127.902C732.272 127.902 731.691 130.225 731.691 133.129V138.356H727.047H722.402V132.549V126.741H716.596H710.79V121.513C710.79 118.61 710.325 116.287 709.629 116.287C709.048 116.287 708.468 118.61 708.468 121.513V126.741H703.823H699.178V115.706C699.178 109.085 698.714 104.671 698.017 104.671C697.32 104.671 696.856 109.317 696.856 116.287V127.902H702.662H708.468V151.133C708.468 165.886 708.932 174.364 709.629 174.364C710.325 174.364 710.79 165.886 710.79 151.133V127.902H715.435H720.08V133.71V139.518H737.497H754.915V145.326C754.915 148.462 755.495 151.133 756.076 151.133C756.773 151.133 757.238 148.462 757.238 145.326V139.518H761.883H766.527V162.168V184.818H761.883H757.238V173.784C757.238 167.163 756.773 162.749 756.076 162.749C755.495 162.749 754.915 165.072 754.915 167.976V173.203H744.464H734.014V167.976V162.749H739.819H745.626V156.941C745.626 153.689 745.161 151.133 744.464 151.133C743.884 151.133 743.303 153.457 743.303 156.36V161.588H738.659H734.014V155.78V149.972L727.976 150.204C722.054 150.321 722.054 150.436 726.815 150.785L731.691 151.249V162.285V173.203H727.047H722.402V167.976C722.402 165.072 721.937 162.749 721.241 162.749C720.544 162.749 720.08 167.395 720.08 174.364C720.08 181.334 720.544 185.98 721.241 185.98C721.937 185.98 722.402 183.308 722.402 180.172V174.364H738.659H754.915V180.172V185.98H772.333H789.75V191.788V197.596L797.066 197.363L804.266 197.131L798.227 196.783L792.073 196.318V191.091V185.98H797.879H803.685V180.289V174.481L808.098 174.016L812.393 173.551L808.098 173.436L803.685 173.203V162.168C803.685 155.547 803.22 151.133 802.524 151.133C801.827 151.133 801.362 157.522 801.362 167.976V184.818H796.718H792.073V173.203V161.471L785.455 161.82L778.719 162.168L778.371 168.208C778.138 171.925 778.487 174.364 779.184 174.364C779.881 174.364 780.461 171.809 780.461 168.557V162.749H785.106H789.75V173.784V184.818H779.3H768.85V150.553C768.85 128.483 768.385 116.287 767.688 116.287C766.992 116.287 766.527 120.701 766.527 127.321V138.356H761.883H757.238V126.741V115.125H739.819H722.402V104.091V93.0553H732.853H743.303V98.1663V103.394L738.426 103.858C733.666 104.206 733.666 104.323 739.588 104.439L745.626 104.671V98.8631V93.0553H750.271H754.915V98.8631V104.671H767.688H780.461V98.8631C780.461 95.6108 779.996 93.0553 779.3 93.0553C778.719 93.0553 778.138 95.3788 778.138 98.2827V103.509H773.494H768.85V86.667V69.8248H773.494H778.138V75.6326C778.138 78.7685 778.719 81.4396 779.3 81.4396C779.996 81.4396 780.461 78.5356 780.461 75.0513V68.5465L773.843 68.895L767.107 69.2434L766.759 86.3186L766.411 103.509H761.883H757.238V92.4749C757.238 85.8537 756.773 81.4396 756.076 81.4396C755.495 81.4396 754.915 83.7631 754.915 86.667V91.8935H750.271H745.626V75.0513C745.626 64.5973 745.161 58.209 744.464 58.209C743.884 58.209 743.303 60.5316 743.303 63.4355V68.663H732.853H722.402V63.552V58.3245L728.557 57.8606L734.595 57.5122L728.557 57.2792L722.402 57.0473V46.0124V34.9776H727.047H731.691V40.7854C731.691 43.9216 732.272 46.5932 732.853 46.5932C733.549 46.5932 734.014 43.9216 734.014 40.7854V34.9776H738.659H743.303V40.7854C743.303 43.9216 743.884 46.5932 744.464 46.5932C745.161 46.5932 745.626 41.947 745.626 34.9776V23.362H757.238H768.85V17.6704V11.8626L775.003 11.398C780.81 10.9334 780.81 10.9334 774.074 11.0495L767.107 11.1657L766.759 16.625L766.411 22.2005H761.766H757.238V7.10026C757.238 -2.19223 756.773 -8 756.076 -8C755.38 -8 754.915 -2.19223 754.915 7.10026V22.2005H750.271H745.626V7.10026C745.626 -2.19223 745.161 -8 744.464 -8C743.884 -8 743.303 -6.48999 743.303 -4.63146C743.303 -1.37918 742.955 -1.14683 738.426 -0.682218L733.433 -0.217606L738.426 -0.101432L743.303 0.13092V16.9735V33.8161H738.659H734.014V22.2005V10.5849H728.208H722.402V5.3579C722.402 2.45397 721.937 0.13092 721.241 0.13092C720.66 0.13092 720.08 2.68633 720.08 5.93869V11.7465H725.886H731.691V22.7813V33.8161H727.047H722.402V28.5891C722.402 25.6852 721.937 23.362 721.241 23.362C720.66 23.362 720.08 25.6852 720.08 28.5891V33.8161H715.435H710.79V16.3927V-1.03065H693.372H675.955V-4.51537C675.955 -6.48999 675.491 -8 674.793 -8C674.097 -8 673.633 -3.93458 673.633 1.87319C673.633 7.68105 674.097 11.7465 674.793 11.7465C675.491 11.7465 675.955 9.07489 675.955 5.93869V0.13092H680.6H685.245V5.93869C685.245 9.07489 685.824 11.7465 686.405 11.7465C687.102 11.7465 687.567 9.07489 687.567 5.93869V0.13092H692.212H696.856V5.93869C696.856 9.07489 697.436 11.7465 698.017 11.7465C698.714 11.7465 699.178 9.07489 699.178 5.93869V0.13092H703.823H708.468V11.1657V22.0844L697.205 22.4328L685.824 22.7813L685.476 28.2406L685.128 33.8161H680.483H675.955V28.5891C675.955 25.6852 675.491 23.362 674.793 23.362C674.213 23.362 673.633 25.9175 673.633 29.1699V34.9776H679.438H685.245V40.7854C685.245 43.9216 685.824 46.5932 686.405 46.5932C687.102 46.5932 687.567 41.947 687.567 34.9776V23.362H692.212H696.856V40.0885V56.9308L691.398 57.2792L685.824 57.6277L685.476 63.0871L685.128 68.663H680.483H675.955V57.0473V45.4316H670.149H664.343V18.7158C664.343 1.64093 663.879 -8 663.181 -8C662.602 -8 662.021 -6.48999 662.021 -4.51537C662.021 -1.263 661.788 -1.03065 657.376 -1.03065C652.964 -1.03065 652.731 -1.263 652.731 -4.51537C652.731 -6.48999 652.267 -8 651.57 -8C650.873 -8 650.409 -3.93458 650.409 1.87319Z" fill="black"/>
<path d="M789.75 12.908V33.8161H785.106H780.461V28.5891C780.461 25.6852 779.996 23.362 779.3 23.362C778.719 23.362 778.138 25.6852 778.138 28.4729V33.6999L772.681 34.0484L767.107 34.3969L766.759 45.664L766.411 57.0473H761.882H757.237V46.0124C757.237 39.3916 756.772 34.9776 756.076 34.9776C755.379 34.9776 754.915 41.5985 754.915 52.401C754.915 63.2036 755.379 69.8248 756.076 69.8248C756.772 69.8248 757.237 67.1528 757.237 64.0169V58.209H763.043H768.849V46.5932V34.9776H779.3H789.75V40.0885V45.3155L784.293 45.664L778.719 46.0124L778.371 52.0525C778.138 55.77 778.487 58.209 779.184 58.209C779.88 58.209 780.461 55.6535 780.461 52.401V46.5932H785.106H789.75V58.209C789.75 65.1777 790.215 69.8248 790.911 69.8248C791.608 69.8248 792.073 65.1777 792.073 58.209V46.5932H796.718H801.362V58.209C801.362 65.1777 801.827 69.8248 802.523 69.8248C803.22 69.8248 803.685 67.2692 803.685 64.1324V58.3245L808.097 57.8606L812.393 57.3957L808.097 57.2792L803.685 57.0473V40.3208V23.4782L808.097 23.0136L812.393 22.549L808.097 22.4328L803.685 22.2005V11.1657C803.685 4.54486 803.22 0.13092 802.523 0.13092C801.827 0.13092 801.362 8.4941 801.362 22.7813V45.4316H796.718H792.073V18.7158C792.073 1.64093 791.608 -8 790.911 -8C790.215 -8 789.75 -0.217607 789.75 12.908Z" fill="black"/>
<path d="M453.007 74.935V80.1625L447.55 80.5109L441.976 80.8593L441.628 86.3188L441.28 91.7782L436.402 92.2431C433.732 92.4751 436.402 92.7071 442.325 92.8235L453.007 93.0555V98.8634V104.671H464.619H476.231V116.287V127.903H487.843H499.455V133.711V139.518H505.261H511.067V150.553V161.588H506.422H501.778V155.78V149.972H495.971H490.166V144.745C490.166 141.841 489.701 139.518 489.004 139.518C488.424 139.518 487.843 141.841 487.843 144.745V149.972H483.198H478.554V144.165V138.357H472.748H466.942V133.129C466.942 130.225 466.477 127.903 465.781 127.903C465.084 127.903 464.619 132.549 464.619 139.518C464.619 146.487 465.084 151.133 465.781 151.133C466.477 151.133 466.942 148.462 466.942 145.326V139.518H471.586H476.231V151.133C476.231 158.103 476.696 162.749 477.393 162.749C478.089 162.749 478.554 160.078 478.554 156.941V151.133H483.198H487.843V156.941C487.843 160.078 488.424 162.749 489.004 162.749C489.701 162.749 490.166 160.078 490.166 156.941V151.133H494.81H499.455V156.941V162.749H505.261H511.067V185.98C511.067 200.732 511.532 209.212 512.228 209.212C512.925 209.212 513.39 206.54 513.39 203.404V197.596H518.034H522.679V204.566C522.679 208.399 523.144 211.535 523.84 211.535C524.537 211.535 525.001 208.399 525.001 204.566V197.596H530.807H536.612V191.788C536.612 188.536 536.148 185.98 535.452 185.98C534.871 185.98 534.29 188.304 534.29 191.208V196.434H529.645H525.001V191.208C525.001 188.304 524.537 185.98 523.84 185.98C523.259 185.98 522.679 188.304 522.679 191.208V196.434H518.034H513.39V173.784V151.133H518.034H522.679V156.941C522.679 160.078 523.259 162.749 523.84 162.749C524.537 162.749 525.001 159.845 525.001 156.361V149.972H519.195H513.39V138.937C513.39 132.317 512.925 127.903 512.228 127.903C511.647 127.903 511.067 130.225 511.067 133.129V138.357H506.422H501.778V126.741V115.125L495.739 115.358C489.817 115.474 489.817 115.59 494.578 115.939L499.455 116.403V121.63V126.741H489.004H478.554V103.509V80.2789L472.515 80.5109C466.594 80.6274 466.594 80.7429 471.355 81.0913L476.231 81.5562V92.5915V103.509H471.586H466.942V98.2829C466.942 95.379 466.477 93.0555 465.781 93.0555C465.2 93.0555 464.619 95.379 464.619 98.2829V103.509H459.975H455.33V97.7016V91.8937H449.524H443.719V86.6672V81.4398H449.524H455.33V75.6328C455.33 72.3804 454.865 69.825 454.169 69.825C453.588 69.825 453.007 72.1475 453.007 74.935Z" fill="black"/>
<path d="M522.678 87.2476V93.0554H528.485H534.29V104.671V116.287H540.097H545.902V121.398V126.624L540.445 126.973L534.871 127.321L534.523 132.781L534.174 138.24L529.297 138.705L524.421 139.17L529.414 139.285L534.29 139.518V156.244V173.087L529.414 173.551C524.652 173.9 524.652 174.016 530.574 174.133L536.613 174.365V162.749V151.133H541.257H545.902V174.365V197.596H551.708H557.514V204.566C557.514 208.398 557.979 211.534 558.675 211.534C559.372 211.534 559.836 208.282 559.836 203.984V196.434H554.03H548.224V179.592V162.749H554.03H559.836V156.941C559.836 153.689 559.372 151.133 558.675 151.133C558.095 151.133 557.514 153.457 557.514 156.361V161.588H552.869H548.224V155.78V149.972H542.419H536.613V138.937V127.903H541.257H545.902V133.71C545.902 136.846 546.483 139.518 547.063 139.518C547.76 139.518 548.224 136.846 548.224 133.71V127.903H552.869H557.514V133.71C557.514 136.846 558.095 139.518 558.675 139.518C559.372 139.518 559.836 134.871 559.836 128.018V116.403L565.99 115.938C571.796 115.474 571.796 115.474 565.062 115.59L558.095 115.706L557.746 121.165L557.398 126.741H552.753H548.224V120.933V115.125H542.419H536.613V103.509V91.8937H530.807H525.001V86.6671C525.001 83.7632 524.536 81.4397 523.84 81.4397C523.259 81.4397 522.678 83.9952 522.678 87.2476Z" fill="black"/>
<path d="M789.751 103.974V115.009L784.293 115.358L778.72 115.706L778.372 133.362L778.022 151.133H785.106H792.073V145.326C792.073 142.074 791.609 139.518 790.911 139.518C790.332 139.518 789.751 141.841 789.751 144.745V149.972H785.106H780.461V139.053V128.018L786.616 127.554L792.654 127.206L786.616 126.973L780.461 126.741V121.513V116.287H790.911H801.363V127.903C801.363 134.871 801.827 139.518 802.523 139.518C803.221 139.518 803.685 133.014 803.685 122.211V104.788L808.097 104.323L812.394 103.858L808.097 103.742L803.685 103.509V98.2829C803.685 95.3789 803.221 93.0554 802.523 93.0554C801.827 93.0554 801.363 97.4695 801.363 104.091V115.125H796.718H792.073V104.091C792.073 97.4695 791.609 93.0554 790.911 93.0554C790.215 93.0554 789.751 97.4696 789.751 103.974Z" fill="black"/>
<path d="M355.236 104.323L360.113 104.787V138.937V173.087L355.236 173.551C352.449 173.784 360.81 174.016 373.815 174.133L397.271 174.365V156.941V139.518H407.721H418.172V150.553V161.588H413.527H408.883V156.36C408.883 153.457 408.418 151.133 407.721 151.133C407.141 151.133 406.56 153.689 406.56 156.941V162.749H412.366H418.172V167.86V173.087L413.295 173.551L408.302 174.016L413.295 174.133L418.172 174.365V179.476V184.703L412.715 185.051L407.141 185.4L406.792 196.666L406.444 208.05H401.916H397.271V197.015C397.271 190.394 396.806 185.98 396.109 185.98C395.413 185.98 394.948 190.394 394.948 197.015V208.05H390.304H385.659V202.242V196.434H379.853H374.047V191.323V186.097L380.201 185.632C383.453 185.4 380.782 185.283 374.047 185.283C367.312 185.283 364.061 185.4 366.848 185.632L371.724 186.097V197.131V208.05H367.08H362.435V202.822C362.435 199.919 361.97 197.596 361.274 197.596C360.577 197.596 360.113 200.732 360.113 204.566C360.113 208.398 360.577 211.534 361.274 211.534C361.97 211.534 362.435 210.954 362.435 210.373C362.435 209.676 365.106 209.212 368.241 209.212H374.047V203.404V197.596H378.692H383.336V203.404V209.212H394.948C401.916 209.212 406.56 209.676 406.56 210.373C406.56 210.954 407.141 211.534 407.721 211.534C408.418 211.534 408.883 206.54 408.883 198.758V185.98H413.527H418.172V198.758C418.172 206.54 418.637 211.534 419.333 211.534C420.03 211.534 420.495 198.525 420.495 174.946V138.356H408.883H397.271V127.321C397.271 120.701 396.806 116.287 396.109 116.287C395.413 116.287 394.948 124.534 394.948 138.821V161.471L390.072 161.936L385.078 162.4L390.072 162.517L394.948 162.749V167.976V173.203H384.498H374.047V167.976C374.047 165.072 373.582 162.749 372.886 162.749C372.305 162.749 371.724 165.072 371.724 167.976V173.203H367.08H362.435V138.356V103.509L356.397 103.742C350.475 103.858 350.475 103.974 355.236 104.323Z" fill="black"/>
<path d="M429.784 110.479V116.287H441.396H453.007V127.321V138.357H448.362H443.719V133.129C443.719 130.225 443.254 127.903 442.557 127.903C441.976 127.903 441.396 130.225 441.396 133.129V138.357H436.751H432.107V133.129C432.107 130.225 431.642 127.903 430.945 127.903C430.364 127.903 429.784 130.458 429.784 133.71V139.518H441.396H453.007V144.628V149.856L448.131 150.321L443.138 150.785L448.131 150.901L453.007 151.133V156.941V162.749H458.814H464.619V173.784V184.819H459.974H455.33V179.592C455.33 176.688 454.865 174.365 454.169 174.365C453.588 174.365 453.007 176.92 453.007 180.172V185.98H470.426H487.843V197.596C487.843 204.566 488.307 209.212 489.004 209.212C489.701 209.212 490.165 206.54 490.165 203.404V197.596H494.81H499.455V204.566C499.455 208.398 499.919 211.534 500.616 211.534C501.313 211.534 501.777 204.333 501.777 192.369V173.203L495.739 173.436C489.817 173.551 489.817 173.668 494.577 174.016L499.455 174.481V185.515V196.434H494.81H490.165V190.626V184.819H484.36H478.553V179.592C478.553 176.688 478.089 174.365 477.393 174.365C476.812 174.365 476.231 176.688 476.231 179.592V184.819H471.586H466.942V173.203V161.588H461.136H455.33V139.053V116.403L461.484 115.938C464.735 115.706 462.181 115.474 455.679 115.358L443.719 115.125V109.899C443.719 106.995 443.254 104.671 442.557 104.671C441.976 104.671 441.396 106.995 441.396 109.899V115.125H436.751H432.107V109.899C432.107 106.995 431.642 104.671 430.945 104.671C430.364 104.671 429.784 107.227 429.784 110.479Z" fill="black"/>
<path d="M429.784 156.941V162.749H435.59H441.396V179.592V196.434H436.751H432.107V185.4C432.107 178.779 431.642 174.365 430.945 174.365C430.249 174.365 429.784 179.011 429.784 185.98V197.596H435.59H441.396V202.822V208.05H436.287C431.293 208.05 428.506 209.56 430.364 211.302C430.829 211.767 431.526 211.419 431.758 210.605C432.455 208.979 441.396 208.63 441.396 210.373C441.396 210.954 441.976 211.534 442.557 211.534C443.254 211.534 443.719 202.474 443.719 186.561V161.588H437.912H432.107V156.361C432.107 153.457 431.642 151.133 430.945 151.133C430.364 151.133 429.784 153.689 429.784 156.941Z" fill="black"/>
<path d="M336.89 180.172V185.98H342.695H348.502V198.758C348.502 206.54 348.966 211.534 349.662 211.534C350.359 211.534 350.824 206.308 350.824 198.176V184.818H345.018H339.212V179.592C339.212 176.688 338.748 174.365 338.051 174.365C337.47 174.365 336.89 176.92 336.89 180.172Z" fill="black"/>
<path d="M650.409 185.98V197.596H656.214H662.021V203.404V209.212H667.711C671.194 209.212 673.748 209.792 674.097 210.605C674.677 211.767 674.91 211.767 675.491 210.721C676.303 208.979 685.245 208.63 685.245 210.373C685.245 210.954 685.825 211.534 686.405 211.534C687.103 211.534 687.567 210.721 687.567 209.792C687.567 208.398 685.476 208.05 675.955 208.05H664.343V197.015C664.343 190.394 663.879 185.98 663.181 185.98C662.602 185.98 662.021 188.304 662.021 191.208V196.434H657.376H652.731V185.4C652.731 178.779 652.267 174.365 651.57 174.365C650.873 174.365 650.409 179.011 650.409 185.98Z" fill="black"/>
</mask>
<g mask="url(#mask0_1205_200)">
<path d="M217.889 181.292C216.596 183.791 214.959 186.203 212.977 188.53C211.081 190.857 208.884 192.925 206.385 194.734C203.972 196.458 201.387 197.88 198.629 199C195.872 200.034 193.028 200.551 190.098 200.551C185.359 200.551 181.179 199.646 177.56 197.837C173.941 196.027 170.925 193.614 168.512 190.598C166.099 187.496 164.29 183.963 163.083 179.999C161.877 176.035 161.274 171.856 161.274 167.461V38.8496C161.274 37.557 161.101 36.2644 160.757 34.9719C160.498 33.5931 160.024 32.3867 159.335 31.3526C158.645 30.2324 157.741 29.3707 156.62 28.7675C155.586 28.0781 154.294 27.7334 152.743 27.7334C150.157 27.7334 147.357 28.8106 144.341 30.9649C141.411 33.033 138.438 36.049 135.422 40.0129C132.492 43.8907 129.649 48.587 126.891 54.102C124.134 59.617 121.678 65.7352 119.523 72.4566C117.455 79.1781 115.775 86.4596 114.482 94.3012C113.19 102.057 112.543 110.2 112.543 118.731V193.442L85.7869 203.007V38.8496C85.7869 37.557 85.6145 36.2644 85.2698 34.9719C85.0113 33.5931 84.5374 32.3867 83.848 31.3526C83.1586 30.2324 82.2969 29.3707 81.2629 28.7675C80.2288 28.0781 78.9362 27.7334 77.3851 27.7334C74.8 27.7334 71.9994 29.3276 68.9834 32.516C66.0535 35.6181 63.0806 39.7975 60.0646 45.054C57.1347 50.2243 54.248 56.2132 51.4043 63.0208C48.6468 69.8284 46.1909 76.8945 44.0366 84.2191C41.9685 91.4575 40.2881 98.696 38.9955 105.934C37.7029 113.173 37.0567 119.851 37.0567 125.969V193.442L10.3003 203.007V17.9098L37.0567 8.3447V81.2462C40.4174 66.7693 44.2089 54.8776 48.4314 45.571C52.7399 36.2644 57.1778 28.8967 61.7449 23.4679C66.3982 18.0391 71.1377 14.2906 75.9633 12.2225C80.7889 10.0682 85.4853 8.99099 90.0524 8.99099C95.2227 8.99099 99.3159 9.63728 102.332 10.9299C105.348 12.1363 107.632 13.8597 109.183 16.1002C110.734 18.2545 111.682 20.8397 112.026 23.8557C112.457 26.7855 112.63 30.017 112.543 33.55V71.9396C115.129 61.2543 118.489 51.9908 122.626 44.1492C126.762 36.2214 131.243 29.6723 136.068 24.502C140.894 19.2455 145.849 15.3677 150.933 12.8688C156.103 10.2836 160.972 8.99099 165.539 8.99099C172.778 8.99099 178.336 10.5421 182.213 13.6443C186.091 16.6603 188.03 21.7876 188.03 29.026V171.727C188.03 173.45 188.202 175.173 188.547 176.897C188.892 178.62 189.452 180.171 190.227 181.55C191.089 182.843 192.209 183.92 193.588 184.782C194.967 185.643 196.647 186.074 198.629 186.074C201.559 186.074 204.36 185.212 207.031 183.489C209.702 181.766 211.9 179.784 213.623 177.543L217.889 181.292ZM268.945 193.442L242.189 203.007V17.9098L268.945 8.3447V193.442ZM457.533 181.292C456.24 183.791 454.603 186.203 452.621 188.53C450.725 190.857 448.528 192.925 446.029 194.734C443.616 196.458 441.031 197.88 438.273 199C435.516 200.034 432.672 200.551 429.742 200.551C424.917 200.551 420.694 199.646 417.075 197.837C413.542 196.027 410.526 193.614 408.027 190.598C405.614 187.496 403.805 183.963 402.598 179.999C401.392 176.035 400.789 171.856 400.789 167.461V55.7824C400.789 53.7143 400.789 51.4738 400.789 49.061C400.789 46.562 400.659 44.1061 400.401 41.6933C400.228 39.2805 399.841 36.9538 399.237 34.7133C398.634 32.4729 397.729 30.534 396.523 28.8967C395.317 27.1733 393.722 25.7946 391.74 24.7605C389.845 23.7264 387.432 23.2094 384.502 23.2094C379.59 23.2094 375.195 24.6743 371.318 27.6042C367.44 30.534 363.993 34.3687 360.977 39.1081C358.047 43.7614 355.505 49.061 353.351 55.0068C351.283 60.8665 349.559 66.7693 348.181 72.7152C346.888 78.661 345.94 84.3484 345.337 89.7772C344.734 95.206 344.432 99.7731 344.432 103.478V192.925L317.676 202.748V17.6513L344.432 8.08618V56.8164C346.156 50.5259 348.439 44.4939 351.283 38.7203C354.213 32.8606 357.746 27.6903 361.882 23.2094C366.104 18.7285 371.016 15.1954 376.617 12.6102C382.305 9.93888 388.811 8.60321 396.135 8.60321C401.65 8.60321 406.39 9.63728 410.354 11.7054C414.317 13.6874 417.549 16.4018 420.048 19.8487C422.633 23.2956 424.529 27.3026 425.735 31.8697C426.942 36.4368 427.545 41.2193 427.545 46.2173V171.727C427.545 173.45 427.717 175.173 428.062 176.897C428.493 178.62 429.096 180.215 429.872 181.679C430.733 183.058 431.853 184.178 433.232 185.04C434.611 185.902 436.334 186.333 438.403 186.333C441.332 186.333 444.09 185.428 446.675 183.618C449.346 181.809 451.544 179.784 453.267 177.543L457.533 181.292ZM634.875 106.581C634.875 114.508 634.013 122.436 632.289 130.364C630.566 138.206 628.024 145.703 624.663 152.855C621.389 159.921 617.339 166.513 612.513 172.631C607.773 178.75 602.302 184.092 596.097 188.659C589.893 193.14 583.042 196.63 575.545 199.129C568.134 201.714 560.12 203.007 551.503 203.007C542.886 203.007 534.829 201.714 527.332 199.129C519.921 196.63 513.114 193.14 506.909 188.659C500.705 184.092 495.19 178.75 490.364 172.631C485.539 166.513 481.445 159.921 478.085 152.855C474.724 145.703 472.182 138.206 470.459 130.364C468.735 122.436 467.873 114.508 467.873 106.581C467.873 98.6529 468.735 90.7682 470.459 82.9265C472.182 75.0849 474.724 67.631 478.085 60.5649C481.445 53.4126 485.539 46.7774 490.364 40.6592C495.19 34.4548 500.705 29.1122 506.909 24.6312C513.114 20.1503 519.921 16.6603 527.332 14.1613C534.829 11.5762 542.886 10.2836 551.503 10.2836C560.12 10.2836 568.134 11.5762 575.545 14.1613C583.042 16.6603 589.893 20.1503 596.097 24.6312C602.302 29.1122 607.773 34.4548 612.513 40.6592C617.339 46.7774 621.389 53.4126 624.663 60.5649C628.024 67.631 630.566 75.0849 632.289 82.9265C634.013 90.7682 634.875 98.6529 634.875 106.581ZM539.87 23.4679C534.269 23.4679 529.271 24.4589 524.876 26.4408C520.567 28.3366 516.733 30.9649 513.372 34.3256C510.011 37.6001 507.168 41.4348 504.841 45.8295C502.514 50.1381 500.619 54.7052 499.154 59.5309C497.689 64.3565 496.612 69.2683 495.922 74.2663C495.233 79.2642 494.888 84.0468 494.888 88.6139C494.888 95.4215 495.405 102.66 496.439 110.329C497.473 117.912 499.111 125.409 501.351 132.82C503.678 140.231 506.608 147.34 510.141 154.148C513.76 160.869 518.112 166.815 523.196 171.985C528.28 177.155 534.096 181.292 540.646 184.394C547.281 187.41 554.778 188.918 563.136 188.918C568.651 188.918 573.563 187.97 577.872 186.074C582.267 184.092 586.144 181.464 589.505 178.189C592.866 174.829 595.709 170.951 598.036 166.556C600.363 162.162 602.258 157.551 603.723 152.726C605.274 147.9 606.395 142.988 607.084 137.99C607.773 132.906 608.118 128.081 608.118 123.513C608.118 116.706 607.601 109.51 606.567 101.927C605.533 94.3443 603.853 86.8474 601.526 79.4366C599.286 72.0258 596.356 64.9597 592.736 58.2383C589.203 51.4307 584.895 45.4848 579.811 40.4007C574.727 35.2304 568.867 31.1372 562.232 28.1212C555.683 25.019 548.229 23.4679 539.87 23.4679ZM783.65 39.6251L761.935 65.8645C760.039 60.1771 757.583 54.7483 754.567 49.578C751.551 44.4077 747.975 39.8837 743.839 36.0059C739.703 32.1282 735.006 29.026 729.75 26.6994C724.493 24.3727 718.634 23.2094 712.171 23.2094C707.517 23.2094 703.209 24.0711 699.245 25.7946C695.281 27.4318 691.791 29.7585 688.775 32.7745C685.845 35.7043 683.519 39.1943 681.795 43.2444C680.158 47.2944 679.339 51.6461 679.339 56.2994C679.339 61.125 680.244 65.6491 682.054 69.8715C683.863 74.0939 686.276 77.9286 689.292 81.3754C692.308 84.7361 695.755 87.666 699.633 90.165C703.597 92.664 707.69 94.6028 711.912 95.9816C716.135 97.4465 720.573 99.0838 725.226 100.893C729.879 102.703 734.446 104.814 738.927 107.227C743.408 109.64 747.674 112.354 751.724 115.37C755.774 118.3 759.35 121.618 762.452 125.323C765.554 129.028 768.01 133.165 769.82 137.732C771.629 142.213 772.534 147.125 772.534 152.467C772.534 160.223 770.811 167.203 767.364 173.407C764.003 179.525 759.565 184.695 754.05 188.918C748.535 193.14 742.202 196.372 735.049 198.612C727.983 200.853 720.788 201.973 713.463 201.973C708.465 201.973 703.381 201.24 698.211 199.776C693.127 198.311 688.215 196.329 683.476 193.83C678.822 191.245 674.427 188.272 670.291 184.911C666.241 181.55 662.708 177.931 659.692 174.053L680.632 150.011C681.924 154.148 684.165 158.542 687.353 163.196C690.628 167.849 694.419 172.157 698.728 176.121C703.037 180.085 707.647 183.403 712.559 186.074C717.556 188.659 722.382 189.952 727.035 189.952C729.707 189.952 732.464 189.263 735.308 187.884C738.152 186.505 740.737 184.739 743.063 182.584C745.476 180.344 747.458 177.931 749.009 175.346C750.56 172.761 751.336 170.219 751.336 167.72C751.336 163.928 750.56 160.352 749.009 156.991C747.458 153.544 745.39 150.313 742.805 147.297C740.306 144.281 737.376 141.523 734.015 139.024C730.741 136.439 727.294 134.156 723.675 132.174C720.142 130.106 716.566 128.339 712.946 126.874C709.413 125.323 706.139 124.117 703.123 123.255C697.177 121.445 691.36 118.86 685.673 115.499C680.072 112.139 675.074 108.089 670.679 103.349C666.284 98.6098 662.751 93.3102 660.08 87.4506C657.409 81.5047 656.073 75.1711 656.073 68.4496C656.073 62.6761 656.978 57.2042 658.787 52.0339C660.597 46.8636 663.096 42.081 666.284 37.6863C669.473 33.2915 673.221 29.3276 677.53 25.7946C681.838 22.1753 686.492 19.1593 691.489 16.7465C696.487 14.2475 701.701 12.3517 707.13 11.0592C712.559 9.68036 718.03 8.99099 723.545 8.99099C735.61 8.99099 746.812 11.7054 757.152 17.1343C767.493 22.4769 776.326 29.9739 783.65 39.6251Z" fill="black"/>
</g>
</g>
<defs>
<clipPath id="clip0_1205_200">
<rect width="789" height="212" fill="white"/>
</clipPath>
</defs>
</svg>
