<svg width="24" height="24" viewBox="0 0 24 24" fill="none" xmlns="http://www.w3.org/2000/svg">
<g clip-path="url(#clip0_378_180)">
<path d="M12 0C5.3736 0 0 5.3736 0 12C0 18.6264 5.3736 24 12 24C18.6264 24 24 18.6264 24 12C24 5.3736 18.6264 0 12 0ZM17.4791 9.35632C17.4843 9.47443 17.4869 9.59308 17.4869 9.71228C17.4869 13.3519 14.7166 17.5488 9.6502 17.549H9.65039H9.6502C8.09473 17.549 6.64728 17.0931 5.42834 16.3118C5.64386 16.3372 5.86322 16.3499 6.08533 16.3499C7.37585 16.3499 8.56347 15.9097 9.50629 15.1708C8.30054 15.1485 7.28393 14.3522 6.93311 13.2577C7.10101 13.29 7.27368 13.3076 7.45075 13.3076C7.70215 13.3076 7.94568 13.2736 8.17713 13.2105C6.91681 12.9581 5.9674 11.8443 5.9674 10.5106C5.9674 10.4982 5.9674 10.487 5.96777 10.4755C6.33892 10.6818 6.76336 10.806 7.21527 10.8199C6.47571 10.3264 5.98956 9.48285 5.98956 8.52722C5.98956 8.02258 6.12598 7.5498 6.36255 7.14276C7.72082 8.80939 9.75073 9.90546 12.0399 10.0206C11.9927 9.81885 11.9684 9.60864 11.9684 9.39258C11.9684 7.87207 13.2019 6.63849 14.7229 6.63849C15.5152 6.63849 16.2309 6.97339 16.7335 7.50879C17.3609 7.38501 17.9501 7.15576 18.4825 6.84027C18.2764 7.48316 17.84 8.02258 17.2713 8.36371C17.8284 8.29706 18.3595 8.14929 18.8529 7.92993C18.4844 8.48236 18.0168 8.96759 17.4791 9.35632Z" fill="white"/>
</g>
<defs>
<clipPath id="clip0_378_180">
<rect width="24" height="24" fill="white"/>
</clipPath>
</defs>
</svg>
