<svg width="53" height="53" viewBox="0 0 53 53" fill="none" xmlns="http://www.w3.org/2000/svg">
<g clip-path="url(#clip0_1159_150)">
<path d="M27.3536 17.6464C27.1583 17.4512 26.8417 17.4512 26.6464 17.6464L23.4645 20.8284C23.2692 21.0237 23.2692 21.3403 23.4645 21.5355C23.6597 21.7308 23.9763 21.7308 24.1716 21.5355L27 18.7071L29.8284 21.5355C30.0237 21.7308 30.3403 21.7308 30.5355 21.5355C30.7308 21.3403 30.7308 21.0237 30.5355 20.8284L27.3536 17.6464ZM27.5 35L27.5 18L26.5 18L26.5 35L27.5 35Z" fill="white"/>
<circle cx="26.5" cy="26.5" r="26" transform="rotate(-180 26.5 26.5)" stroke="white"/>
</g>
<defs>
<clipPath id="clip0_1159_150">
<rect width="53" height="53" fill="white"/>
</clipPath>
</defs>
</svg>
