<svg width="24" height="24" viewBox="0 0 24 24" fill="none" xmlns="http://www.w3.org/2000/svg">
<g clip-path="url(#clip0_378_171)">
<path d="M10.5042 14.2483L14.4076 12.0002L10.5042 9.75195V14.2483Z" fill="white"/>
<path d="M12 0C5.3736 0 0 5.3736 0 12C0 18.6264 5.3736 24 12 24C18.6264 24 24 18.6264 24 12C24 5.3736 18.6264 0 12 0ZM19.4981 12.0122C19.4981 12.0122 19.4981 14.4459 19.1894 15.6194C19.0164 16.2617 18.51 16.7683 17.8676 16.9411C16.6941 17.25 12 17.25 12 17.25C12 17.25 7.31818 17.25 6.13238 16.9288C5.49005 16.7559 4.98358 16.2493 4.81055 15.607C4.50165 14.4459 4.50165 12 4.50165 12C4.50165 12 4.50165 9.56653 4.81055 8.39301C4.9834 7.75067 5.50232 7.23175 6.13238 7.0589C7.30591 6.75 12 6.75 12 6.75C12 6.75 16.6941 6.75 17.8676 7.07116C18.51 7.24402 19.0164 7.75067 19.1894 8.39301C19.5106 9.56653 19.4981 12.0122 19.4981 12.0122Z" fill="white"/>
</g>
<defs>
<clipPath id="clip0_378_171">
<rect width="24" height="24" fill="white"/>
</clipPath>
</defs>
</svg>
